<mxfile host="app.diagrams.net" agent="Mozilla/5.0 (Windows NT 10.0; Win64; x64) AppleWebKit/537.36 (KHTML, like Gecko) Chrome/134.0.0.0 Safari/537.36" version="26.2.12">
  <diagram name="Page-1" id="42789a77-a242-8287-6e28-9cd8cfd52e62">
    <mxGraphModel dx="2476" dy="2112" grid="1" gridSize="10" guides="1" tooltips="1" connect="1" arrows="1" fold="1" page="1" pageScale="1" pageWidth="1100" pageHeight="850" background="none" math="0" shadow="0">
      <root>
        <mxCell id="0" />
        <mxCell id="1" parent="0" />
        <mxCell id="IrHY06osy-3fzBqlDA18-60" value="" style="group" vertex="1" connectable="0" parent="1">
          <mxGeometry x="155" y="-820" width="790" height="790" as="geometry" />
        </mxCell>
        <mxCell id="IrHY06osy-3fzBqlDA18-31" value="" style="group" vertex="1" connectable="0" parent="IrHY06osy-3fzBqlDA18-60">
          <mxGeometry x="280" y="110" width="510" height="590" as="geometry" />
        </mxCell>
        <mxCell id="IrHY06osy-3fzBqlDA18-12" style="rounded=0;orthogonalLoop=1;jettySize=auto;html=1;entryX=1;entryY=0.5;entryDx=0;entryDy=0;" edge="1" parent="IrHY06osy-3fzBqlDA18-31" source="IrHY06osy-3fzBqlDA18-1" target="IrHY06osy-3fzBqlDA18-11">
          <mxGeometry relative="1" as="geometry" />
        </mxCell>
        <mxCell id="IrHY06osy-3fzBqlDA18-16" style="rounded=0;orthogonalLoop=1;jettySize=auto;html=1;entryX=1;entryY=0.5;entryDx=0;entryDy=0;" edge="1" parent="IrHY06osy-3fzBqlDA18-31" source="IrHY06osy-3fzBqlDA18-1" target="IrHY06osy-3fzBqlDA18-13">
          <mxGeometry relative="1" as="geometry" />
        </mxCell>
        <mxCell id="IrHY06osy-3fzBqlDA18-17" style="rounded=0;orthogonalLoop=1;jettySize=auto;html=1;entryX=1;entryY=0.5;entryDx=0;entryDy=0;" edge="1" parent="IrHY06osy-3fzBqlDA18-31" source="IrHY06osy-3fzBqlDA18-1" target="IrHY06osy-3fzBqlDA18-14">
          <mxGeometry relative="1" as="geometry" />
        </mxCell>
        <mxCell id="IrHY06osy-3fzBqlDA18-21" style="rounded=0;orthogonalLoop=1;jettySize=auto;html=1;entryX=1;entryY=0.5;entryDx=0;entryDy=0;" edge="1" parent="IrHY06osy-3fzBqlDA18-31" source="IrHY06osy-3fzBqlDA18-1" target="IrHY06osy-3fzBqlDA18-20">
          <mxGeometry relative="1" as="geometry" />
        </mxCell>
        <mxCell id="IrHY06osy-3fzBqlDA18-27" style="rounded=0;orthogonalLoop=1;jettySize=auto;html=1;entryX=0;entryY=1;entryDx=0;entryDy=0;" edge="1" parent="IrHY06osy-3fzBqlDA18-31" source="IrHY06osy-3fzBqlDA18-1" target="IrHY06osy-3fzBqlDA18-23">
          <mxGeometry relative="1" as="geometry" />
        </mxCell>
        <mxCell id="IrHY06osy-3fzBqlDA18-28" style="rounded=0;orthogonalLoop=1;jettySize=auto;html=1;entryX=0;entryY=0.5;entryDx=0;entryDy=0;" edge="1" parent="IrHY06osy-3fzBqlDA18-31" source="IrHY06osy-3fzBqlDA18-1" target="IrHY06osy-3fzBqlDA18-24">
          <mxGeometry relative="1" as="geometry" />
        </mxCell>
        <mxCell id="IrHY06osy-3fzBqlDA18-29" style="rounded=0;orthogonalLoop=1;jettySize=auto;html=1;entryX=0;entryY=0.5;entryDx=0;entryDy=0;" edge="1" parent="IrHY06osy-3fzBqlDA18-31" source="IrHY06osy-3fzBqlDA18-1" target="IrHY06osy-3fzBqlDA18-25">
          <mxGeometry relative="1" as="geometry" />
        </mxCell>
        <mxCell id="IrHY06osy-3fzBqlDA18-30" style="rounded=0;orthogonalLoop=1;jettySize=auto;html=1;entryX=0;entryY=0;entryDx=0;entryDy=0;" edge="1" parent="IrHY06osy-3fzBqlDA18-31" source="IrHY06osy-3fzBqlDA18-1" target="IrHY06osy-3fzBqlDA18-26">
          <mxGeometry relative="1" as="geometry" />
        </mxCell>
        <mxCell id="IrHY06osy-3fzBqlDA18-55" style="rounded=0;orthogonalLoop=1;jettySize=auto;html=1;entryX=0.5;entryY=0;entryDx=0;entryDy=0;" edge="1" parent="IrHY06osy-3fzBqlDA18-31" source="IrHY06osy-3fzBqlDA18-1" target="IrHY06osy-3fzBqlDA18-15">
          <mxGeometry relative="1" as="geometry" />
        </mxCell>
        <mxCell id="IrHY06osy-3fzBqlDA18-8" value="&lt;font style=&quot;font-size: 12px;&quot;&gt;Đăng nhập hệ thống&lt;/font&gt;" style="ellipse;whiteSpace=wrap;html=1;" vertex="1" parent="IrHY06osy-3fzBqlDA18-31">
          <mxGeometry x="20" width="120" height="90" as="geometry" />
        </mxCell>
        <mxCell id="IrHY06osy-3fzBqlDA18-9" style="rounded=0;orthogonalLoop=1;jettySize=auto;html=1;entryX=1.003;entryY=0.676;entryDx=0;entryDy=0;entryPerimeter=0;" edge="1" parent="IrHY06osy-3fzBqlDA18-31" source="IrHY06osy-3fzBqlDA18-1" target="IrHY06osy-3fzBqlDA18-8">
          <mxGeometry relative="1" as="geometry" />
        </mxCell>
        <mxCell id="IrHY06osy-3fzBqlDA18-1" value="QuanLy" style="shape=umlActor;verticalLabelPosition=bottom;verticalAlign=top;html=1;outlineConnect=0;" vertex="1" parent="IrHY06osy-3fzBqlDA18-31">
          <mxGeometry x="270" y="160" width="30" height="60" as="geometry" />
        </mxCell>
        <mxCell id="IrHY06osy-3fzBqlDA18-11" value="Lập hóa đơn" style="ellipse;whiteSpace=wrap;html=1;" vertex="1" parent="IrHY06osy-3fzBqlDA18-31">
          <mxGeometry x="10" y="110" width="120" height="80" as="geometry" />
        </mxCell>
        <mxCell id="IrHY06osy-3fzBqlDA18-13" value="Tra cứu thực đơn" style="ellipse;whiteSpace=wrap;html=1;" vertex="1" parent="IrHY06osy-3fzBqlDA18-31">
          <mxGeometry y="210" width="120" height="80" as="geometry" />
        </mxCell>
        <mxCell id="IrHY06osy-3fzBqlDA18-14" value="Tra cứu nhân viên" style="ellipse;whiteSpace=wrap;html=1;" vertex="1" parent="IrHY06osy-3fzBqlDA18-31">
          <mxGeometry x="10" y="390" width="120" height="80" as="geometry" />
        </mxCell>
        <mxCell id="IrHY06osy-3fzBqlDA18-20" value="Tạo đơn hàng" style="ellipse;whiteSpace=wrap;html=1;" vertex="1" parent="IrHY06osy-3fzBqlDA18-31">
          <mxGeometry x="10" y="300" width="120" height="80" as="geometry" />
        </mxCell>
        <mxCell id="IrHY06osy-3fzBqlDA18-23" value="Quản lý nhân viên" style="ellipse;whiteSpace=wrap;html=1;" vertex="1" parent="IrHY06osy-3fzBqlDA18-31">
          <mxGeometry x="350" y="10" width="120" height="80" as="geometry" />
        </mxCell>
        <mxCell id="IrHY06osy-3fzBqlDA18-24" value="Quản lý thực đơn" style="ellipse;whiteSpace=wrap;html=1;" vertex="1" parent="IrHY06osy-3fzBqlDA18-31">
          <mxGeometry x="390" y="110" width="120" height="80" as="geometry" />
        </mxCell>
        <mxCell id="IrHY06osy-3fzBqlDA18-25" value="Phân công nhân viên" style="ellipse;whiteSpace=wrap;html=1;" vertex="1" parent="IrHY06osy-3fzBqlDA18-31">
          <mxGeometry x="370" y="210" width="120" height="80" as="geometry" />
        </mxCell>
        <mxCell id="IrHY06osy-3fzBqlDA18-26" value="Quản lý hóa đơn" style="ellipse;whiteSpace=wrap;html=1;" vertex="1" parent="IrHY06osy-3fzBqlDA18-31">
          <mxGeometry x="330" y="340" width="120" height="80" as="geometry" />
        </mxCell>
        <mxCell id="IrHY06osy-3fzBqlDA18-45" value="Cập nhật trạng thái đơn hàng" style="ellipse;whiteSpace=wrap;html=1;" vertex="1" parent="IrHY06osy-3fzBqlDA18-31">
          <mxGeometry x="-30" y="490" width="120" height="80" as="geometry" />
        </mxCell>
        <mxCell id="IrHY06osy-3fzBqlDA18-15" value="Thống kê doanh thu" style="ellipse;whiteSpace=wrap;html=1;" vertex="1" parent="IrHY06osy-3fzBqlDA18-31">
          <mxGeometry x="180" y="460" width="120" height="80" as="geometry" />
        </mxCell>
        <mxCell id="IrHY06osy-3fzBqlDA18-37" style="rounded=0;orthogonalLoop=1;jettySize=auto;html=1;entryX=0;entryY=0.5;entryDx=0;entryDy=0;" edge="1" parent="IrHY06osy-3fzBqlDA18-60" source="IrHY06osy-3fzBqlDA18-33" target="IrHY06osy-3fzBqlDA18-8">
          <mxGeometry relative="1" as="geometry" />
        </mxCell>
        <mxCell id="IrHY06osy-3fzBqlDA18-38" style="rounded=0;orthogonalLoop=1;jettySize=auto;html=1;entryX=0;entryY=0.5;entryDx=0;entryDy=0;" edge="1" parent="IrHY06osy-3fzBqlDA18-60" source="IrHY06osy-3fzBqlDA18-33" target="IrHY06osy-3fzBqlDA18-11">
          <mxGeometry relative="1" as="geometry" />
        </mxCell>
        <mxCell id="IrHY06osy-3fzBqlDA18-39" style="rounded=0;orthogonalLoop=1;jettySize=auto;html=1;entryX=0;entryY=0.5;entryDx=0;entryDy=0;" edge="1" parent="IrHY06osy-3fzBqlDA18-60" source="IrHY06osy-3fzBqlDA18-33" target="IrHY06osy-3fzBqlDA18-13">
          <mxGeometry relative="1" as="geometry" />
        </mxCell>
        <mxCell id="IrHY06osy-3fzBqlDA18-40" style="rounded=0;orthogonalLoop=1;jettySize=auto;html=1;entryX=0;entryY=0.5;entryDx=0;entryDy=0;" edge="1" parent="IrHY06osy-3fzBqlDA18-60" source="IrHY06osy-3fzBqlDA18-33" target="IrHY06osy-3fzBqlDA18-20">
          <mxGeometry relative="1" as="geometry" />
        </mxCell>
        <mxCell id="IrHY06osy-3fzBqlDA18-41" style="rounded=0;orthogonalLoop=1;jettySize=auto;html=1;entryX=0;entryY=0.5;entryDx=0;entryDy=0;" edge="1" parent="IrHY06osy-3fzBqlDA18-60" source="IrHY06osy-3fzBqlDA18-33" target="IrHY06osy-3fzBqlDA18-14">
          <mxGeometry relative="1" as="geometry" />
        </mxCell>
        <mxCell id="IrHY06osy-3fzBqlDA18-46" style="rounded=0;orthogonalLoop=1;jettySize=auto;html=1;entryX=0;entryY=0.5;entryDx=0;entryDy=0;" edge="1" parent="IrHY06osy-3fzBqlDA18-60" source="IrHY06osy-3fzBqlDA18-33" target="IrHY06osy-3fzBqlDA18-45">
          <mxGeometry relative="1" as="geometry" />
        </mxCell>
        <mxCell id="IrHY06osy-3fzBqlDA18-57" style="rounded=0;orthogonalLoop=1;jettySize=auto;html=1;entryX=0;entryY=0.5;entryDx=0;entryDy=0;" edge="1" parent="IrHY06osy-3fzBqlDA18-60" source="IrHY06osy-3fzBqlDA18-33" target="IrHY06osy-3fzBqlDA18-56">
          <mxGeometry relative="1" as="geometry" />
        </mxCell>
        <mxCell id="IrHY06osy-3fzBqlDA18-33" value="Nhân viên phục vụ" style="shape=umlActor;verticalLabelPosition=bottom;verticalAlign=top;html=1;outlineConnect=0;" vertex="1" parent="IrHY06osy-3fzBqlDA18-60">
          <mxGeometry y="220" width="30" height="60" as="geometry" />
        </mxCell>
        <mxCell id="IrHY06osy-3fzBqlDA18-42" style="rounded=0;orthogonalLoop=1;jettySize=auto;html=1;entryX=0;entryY=0.5;entryDx=0;entryDy=0;" edge="1" parent="IrHY06osy-3fzBqlDA18-60" source="IrHY06osy-3fzBqlDA18-35" target="IrHY06osy-3fzBqlDA18-8">
          <mxGeometry relative="1" as="geometry" />
        </mxCell>
        <mxCell id="IrHY06osy-3fzBqlDA18-47" style="rounded=0;orthogonalLoop=1;jettySize=auto;html=1;entryX=0;entryY=0.5;entryDx=0;entryDy=0;" edge="1" parent="IrHY06osy-3fzBqlDA18-60" source="IrHY06osy-3fzBqlDA18-35" target="IrHY06osy-3fzBqlDA18-13">
          <mxGeometry relative="1" as="geometry" />
        </mxCell>
        <mxCell id="IrHY06osy-3fzBqlDA18-48" style="rounded=0;orthogonalLoop=1;jettySize=auto;html=1;entryX=0;entryY=0.5;entryDx=0;entryDy=0;" edge="1" parent="IrHY06osy-3fzBqlDA18-60" source="IrHY06osy-3fzBqlDA18-35" target="IrHY06osy-3fzBqlDA18-14">
          <mxGeometry relative="1" as="geometry" />
        </mxCell>
        <mxCell id="IrHY06osy-3fzBqlDA18-49" style="rounded=0;orthogonalLoop=1;jettySize=auto;html=1;entryX=0;entryY=0.5;entryDx=0;entryDy=0;" edge="1" parent="IrHY06osy-3fzBqlDA18-60" source="IrHY06osy-3fzBqlDA18-35" target="IrHY06osy-3fzBqlDA18-45">
          <mxGeometry relative="1" as="geometry" />
        </mxCell>
        <mxCell id="IrHY06osy-3fzBqlDA18-51" style="rounded=0;orthogonalLoop=1;jettySize=auto;html=1;entryX=0;entryY=0.5;entryDx=0;entryDy=0;" edge="1" parent="IrHY06osy-3fzBqlDA18-60" source="IrHY06osy-3fzBqlDA18-35" target="IrHY06osy-3fzBqlDA18-50">
          <mxGeometry relative="1" as="geometry" />
        </mxCell>
        <mxCell id="IrHY06osy-3fzBqlDA18-58" style="rounded=0;orthogonalLoop=1;jettySize=auto;html=1;" edge="1" parent="IrHY06osy-3fzBqlDA18-60" source="IrHY06osy-3fzBqlDA18-35">
          <mxGeometry relative="1" as="geometry">
            <mxPoint x="290" y="40" as="targetPoint" />
          </mxGeometry>
        </mxCell>
        <mxCell id="IrHY06osy-3fzBqlDA18-35" value="Nhân viên nhà bếp" style="shape=umlActor;verticalLabelPosition=bottom;verticalAlign=top;html=1;outlineConnect=0;" vertex="1" parent="IrHY06osy-3fzBqlDA18-60">
          <mxGeometry x="20" y="455" width="30" height="60" as="geometry" />
        </mxCell>
        <mxCell id="IrHY06osy-3fzBqlDA18-50" value="Quản lý nguyên liệu" style="ellipse;whiteSpace=wrap;html=1;" vertex="1" parent="IrHY06osy-3fzBqlDA18-60">
          <mxGeometry x="250" y="710" width="120" height="80" as="geometry" />
        </mxCell>
        <mxCell id="IrHY06osy-3fzBqlDA18-52" style="rounded=0;orthogonalLoop=1;jettySize=auto;html=1;entryX=1;entryY=0.5;entryDx=0;entryDy=0;" edge="1" parent="IrHY06osy-3fzBqlDA18-60" source="IrHY06osy-3fzBqlDA18-1" target="IrHY06osy-3fzBqlDA18-50">
          <mxGeometry relative="1" as="geometry" />
        </mxCell>
        <mxCell id="IrHY06osy-3fzBqlDA18-56" value="&lt;font style=&quot;font-size: 12px;&quot;&gt;Đăng xuất hệ thống&lt;/font&gt;" style="ellipse;whiteSpace=wrap;html=1;" vertex="1" parent="IrHY06osy-3fzBqlDA18-60">
          <mxGeometry x="290" width="120" height="90" as="geometry" />
        </mxCell>
        <mxCell id="IrHY06osy-3fzBqlDA18-59" style="rounded=0;orthogonalLoop=1;jettySize=auto;html=1;entryX=1.004;entryY=0.669;entryDx=0;entryDy=0;entryPerimeter=0;" edge="1" parent="IrHY06osy-3fzBqlDA18-60" source="IrHY06osy-3fzBqlDA18-1" target="IrHY06osy-3fzBqlDA18-56">
          <mxGeometry relative="1" as="geometry" />
        </mxCell>
        <mxCell id="IrHY06osy-3fzBqlDA18-105" value="" style="group" vertex="1" connectable="0" parent="1">
          <mxGeometry x="150" y="50" width="540" height="520" as="geometry" />
        </mxCell>
        <mxCell id="IrHY06osy-3fzBqlDA18-80" style="rounded=0;orthogonalLoop=1;jettySize=auto;html=1;entryX=0;entryY=0.5;entryDx=0;entryDy=0;" edge="1" parent="IrHY06osy-3fzBqlDA18-105" source="IrHY06osy-3fzBqlDA18-61" target="IrHY06osy-3fzBqlDA18-76">
          <mxGeometry relative="1" as="geometry" />
        </mxCell>
        <mxCell id="IrHY06osy-3fzBqlDA18-83" style="rounded=0;orthogonalLoop=1;jettySize=auto;html=1;entryX=0;entryY=0.5;entryDx=0;entryDy=0;" edge="1" parent="IrHY06osy-3fzBqlDA18-105" source="IrHY06osy-3fzBqlDA18-61" target="IrHY06osy-3fzBqlDA18-77">
          <mxGeometry relative="1" as="geometry" />
        </mxCell>
        <mxCell id="IrHY06osy-3fzBqlDA18-61" value="Nhân viên nhà bếp" style="shape=umlActor;verticalLabelPosition=bottom;verticalAlign=top;html=1;outlineConnect=0;" vertex="1" parent="IrHY06osy-3fzBqlDA18-105">
          <mxGeometry y="120" width="30" height="60" as="geometry" />
        </mxCell>
        <mxCell id="IrHY06osy-3fzBqlDA18-82" style="rounded=0;orthogonalLoop=1;jettySize=auto;html=1;entryX=0;entryY=0.5;entryDx=0;entryDy=0;" edge="1" parent="IrHY06osy-3fzBqlDA18-105" source="IrHY06osy-3fzBqlDA18-72" target="IrHY06osy-3fzBqlDA18-77">
          <mxGeometry relative="1" as="geometry" />
        </mxCell>
        <mxCell id="IrHY06osy-3fzBqlDA18-72" value="Nhân viên phục vụ&amp;nbsp;" style="shape=umlActor;verticalLabelPosition=bottom;verticalAlign=top;html=1;outlineConnect=0;" vertex="1" parent="IrHY06osy-3fzBqlDA18-105">
          <mxGeometry y="280" width="30" height="60" as="geometry" />
        </mxCell>
        <mxCell id="IrHY06osy-3fzBqlDA18-85" style="rounded=0;orthogonalLoop=1;jettySize=auto;html=1;entryX=1;entryY=0.5;entryDx=0;entryDy=0;" edge="1" parent="IrHY06osy-3fzBqlDA18-105" source="IrHY06osy-3fzBqlDA18-73" target="IrHY06osy-3fzBqlDA18-77">
          <mxGeometry relative="1" as="geometry" />
        </mxCell>
        <mxCell id="IrHY06osy-3fzBqlDA18-73" value="Quản lý" style="shape=umlActor;verticalLabelPosition=bottom;verticalAlign=top;html=1;outlineConnect=0;" vertex="1" parent="IrHY06osy-3fzBqlDA18-105">
          <mxGeometry x="510" y="130" width="30" height="60" as="geometry" />
        </mxCell>
        <mxCell id="IrHY06osy-3fzBqlDA18-76" value="Yêu cầu đăng nhập hệ thống&amp;nbsp;" style="ellipse;whiteSpace=wrap;html=1;" vertex="1" parent="IrHY06osy-3fzBqlDA18-105">
          <mxGeometry x="210" y="40" width="120" height="80" as="geometry" />
        </mxCell>
        <mxCell id="IrHY06osy-3fzBqlDA18-77" value="Nhập thông tin đăng nhập" style="ellipse;whiteSpace=wrap;html=1;" vertex="1" parent="IrHY06osy-3fzBqlDA18-105">
          <mxGeometry x="210" y="170" width="120" height="80" as="geometry" />
        </mxCell>
        <mxCell id="IrHY06osy-3fzBqlDA18-86" style="rounded=0;orthogonalLoop=1;jettySize=auto;html=1;" edge="1" parent="IrHY06osy-3fzBqlDA18-105" source="IrHY06osy-3fzBqlDA18-78" target="IrHY06osy-3fzBqlDA18-61">
          <mxGeometry relative="1" as="geometry" />
        </mxCell>
        <mxCell id="IrHY06osy-3fzBqlDA18-87" style="rounded=0;orthogonalLoop=1;jettySize=auto;html=1;" edge="1" parent="IrHY06osy-3fzBqlDA18-105" source="IrHY06osy-3fzBqlDA18-78" target="IrHY06osy-3fzBqlDA18-72">
          <mxGeometry relative="1" as="geometry" />
        </mxCell>
        <mxCell id="IrHY06osy-3fzBqlDA18-78" value="Xác nhận đăng nhập" style="ellipse;whiteSpace=wrap;html=1;" vertex="1" parent="IrHY06osy-3fzBqlDA18-105">
          <mxGeometry x="210" y="290" width="120" height="80" as="geometry" />
        </mxCell>
        <mxCell id="IrHY06osy-3fzBqlDA18-88" style="rounded=0;orthogonalLoop=1;jettySize=auto;html=1;" edge="1" parent="IrHY06osy-3fzBqlDA18-105" source="IrHY06osy-3fzBqlDA18-79" target="IrHY06osy-3fzBqlDA18-61">
          <mxGeometry relative="1" as="geometry" />
        </mxCell>
        <mxCell id="IrHY06osy-3fzBqlDA18-92" style="rounded=0;orthogonalLoop=1;jettySize=auto;html=1;" edge="1" parent="IrHY06osy-3fzBqlDA18-105" source="IrHY06osy-3fzBqlDA18-79">
          <mxGeometry relative="1" as="geometry">
            <mxPoint x="510" y="190" as="targetPoint" />
          </mxGeometry>
        </mxCell>
        <mxCell id="IrHY06osy-3fzBqlDA18-79" value="Thông báo kết quả" style="ellipse;whiteSpace=wrap;html=1;" vertex="1" parent="IrHY06osy-3fzBqlDA18-105">
          <mxGeometry x="210" y="410" width="120" height="80" as="geometry" />
        </mxCell>
        <mxCell id="IrHY06osy-3fzBqlDA18-81" style="rounded=0;orthogonalLoop=1;jettySize=auto;html=1;entryX=0;entryY=0.625;entryDx=0;entryDy=0;entryPerimeter=0;" edge="1" parent="IrHY06osy-3fzBqlDA18-105" source="IrHY06osy-3fzBqlDA18-72" target="IrHY06osy-3fzBqlDA18-76">
          <mxGeometry relative="1" as="geometry" />
        </mxCell>
        <mxCell id="IrHY06osy-3fzBqlDA18-84" style="rounded=0;orthogonalLoop=1;jettySize=auto;html=1;entryX=1.004;entryY=0.366;entryDx=0;entryDy=0;entryPerimeter=0;" edge="1" parent="IrHY06osy-3fzBqlDA18-105" target="IrHY06osy-3fzBqlDA18-76">
          <mxGeometry relative="1" as="geometry">
            <mxPoint x="510" y="160" as="sourcePoint" />
          </mxGeometry>
        </mxCell>
        <mxCell id="IrHY06osy-3fzBqlDA18-89" style="rounded=0;orthogonalLoop=1;jettySize=auto;html=1;" edge="1" parent="IrHY06osy-3fzBqlDA18-105" source="IrHY06osy-3fzBqlDA18-79">
          <mxGeometry relative="1" as="geometry">
            <mxPoint x="30" y="310" as="targetPoint" />
          </mxGeometry>
        </mxCell>
        <mxCell id="IrHY06osy-3fzBqlDA18-91" style="rounded=0;orthogonalLoop=1;jettySize=auto;html=1;entryX=0;entryY=1;entryDx=0;entryDy=0;entryPerimeter=0;" edge="1" parent="IrHY06osy-3fzBqlDA18-105" source="IrHY06osy-3fzBqlDA18-78" target="IrHY06osy-3fzBqlDA18-73">
          <mxGeometry relative="1" as="geometry" />
        </mxCell>
        <mxCell id="IrHY06osy-3fzBqlDA18-99" value="UCDANGNHAP" style="swimlane;whiteSpace=wrap;html=1;" vertex="1" parent="IrHY06osy-3fzBqlDA18-105">
          <mxGeometry x="80" width="380" height="520" as="geometry" />
        </mxCell>
        <mxCell id="IrHY06osy-3fzBqlDA18-102" value="" style="fontSize=12;html=1;endArrow=blockThin;endFill=1;startArrow=none;rounded=0;startFill=0;dashed=1;entryX=0.5;entryY=1;entryDx=0;entryDy=0;" edge="1" parent="IrHY06osy-3fzBqlDA18-99" target="IrHY06osy-3fzBqlDA18-77">
          <mxGeometry width="60" height="60" relative="1" as="geometry">
            <mxPoint x="190" y="290" as="sourcePoint" />
            <mxPoint x="275" y="220" as="targetPoint" />
          </mxGeometry>
        </mxCell>
        <mxCell id="IrHY06osy-3fzBqlDA18-101" value="" style="fontSize=12;html=1;endArrow=blockThin;endFill=1;startArrow=none;rounded=0;startFill=0;dashed=1;exitX=0.5;exitY=0;exitDx=0;exitDy=0;entryX=0.5;entryY=1;entryDx=0;entryDy=0;" edge="1" parent="IrHY06osy-3fzBqlDA18-105" source="IrHY06osy-3fzBqlDA18-79" target="IrHY06osy-3fzBqlDA18-78">
          <mxGeometry width="60" height="60" relative="1" as="geometry">
            <mxPoint x="130" y="340" as="sourcePoint" />
            <mxPoint x="190" y="280" as="targetPoint" />
          </mxGeometry>
        </mxCell>
        <mxCell id="IrHY06osy-3fzBqlDA18-104" value="" style="fontSize=12;html=1;endArrow=blockThin;endFill=1;startArrow=none;rounded=0;startFill=0;dashed=1;exitX=0.5;exitY=0;exitDx=0;exitDy=0;entryX=0.5;entryY=1;entryDx=0;entryDy=0;" edge="1" parent="IrHY06osy-3fzBqlDA18-105" source="IrHY06osy-3fzBqlDA18-77" target="IrHY06osy-3fzBqlDA18-76">
          <mxGeometry width="60" height="60" relative="1" as="geometry">
            <mxPoint x="240" y="260" as="sourcePoint" />
            <mxPoint x="300" y="200" as="targetPoint" />
          </mxGeometry>
        </mxCell>
        <mxCell id="IrHY06osy-3fzBqlDA18-137" value="" style="group" vertex="1" connectable="0" parent="1">
          <mxGeometry x="160" y="650" width="540" height="520" as="geometry" />
        </mxCell>
        <mxCell id="IrHY06osy-3fzBqlDA18-112" style="rounded=0;orthogonalLoop=1;jettySize=auto;html=1;entryX=0;entryY=0.5;entryDx=0;entryDy=0;" edge="1" parent="IrHY06osy-3fzBqlDA18-137" source="IrHY06osy-3fzBqlDA18-113" target="IrHY06osy-3fzBqlDA18-117">
          <mxGeometry relative="1" as="geometry" />
        </mxCell>
        <mxCell id="IrHY06osy-3fzBqlDA18-133" style="rounded=0;orthogonalLoop=1;jettySize=auto;html=1;entryX=0;entryY=0.5;entryDx=0;entryDy=0;" edge="1" parent="IrHY06osy-3fzBqlDA18-137" source="IrHY06osy-3fzBqlDA18-113" target="IrHY06osy-3fzBqlDA18-120">
          <mxGeometry relative="1" as="geometry" />
        </mxCell>
        <mxCell id="IrHY06osy-3fzBqlDA18-134" style="rounded=0;orthogonalLoop=1;jettySize=auto;html=1;entryX=0;entryY=0.5;entryDx=0;entryDy=0;" edge="1" parent="IrHY06osy-3fzBqlDA18-137" source="IrHY06osy-3fzBqlDA18-113" target="IrHY06osy-3fzBqlDA18-123">
          <mxGeometry relative="1" as="geometry" />
        </mxCell>
        <mxCell id="IrHY06osy-3fzBqlDA18-113" value="Nhân viên phục vụ&amp;nbsp;" style="shape=umlActor;verticalLabelPosition=bottom;verticalAlign=top;html=1;outlineConnect=0;" vertex="1" parent="IrHY06osy-3fzBqlDA18-137">
          <mxGeometry y="280" width="30" height="60" as="geometry" />
        </mxCell>
        <mxCell id="IrHY06osy-3fzBqlDA18-114" style="rounded=0;orthogonalLoop=1;jettySize=auto;html=1;entryX=1;entryY=0.5;entryDx=0;entryDy=0;" edge="1" parent="IrHY06osy-3fzBqlDA18-137" source="IrHY06osy-3fzBqlDA18-115" target="IrHY06osy-3fzBqlDA18-117">
          <mxGeometry relative="1" as="geometry" />
        </mxCell>
        <mxCell id="IrHY06osy-3fzBqlDA18-135" style="rounded=0;orthogonalLoop=1;jettySize=auto;html=1;entryX=1;entryY=0.5;entryDx=0;entryDy=0;" edge="1" parent="IrHY06osy-3fzBqlDA18-137" source="IrHY06osy-3fzBqlDA18-115" target="IrHY06osy-3fzBqlDA18-120">
          <mxGeometry relative="1" as="geometry" />
        </mxCell>
        <mxCell id="IrHY06osy-3fzBqlDA18-136" style="rounded=0;orthogonalLoop=1;jettySize=auto;html=1;entryX=1;entryY=0.5;entryDx=0;entryDy=0;" edge="1" parent="IrHY06osy-3fzBqlDA18-137" source="IrHY06osy-3fzBqlDA18-115" target="IrHY06osy-3fzBqlDA18-123">
          <mxGeometry relative="1" as="geometry" />
        </mxCell>
        <mxCell id="IrHY06osy-3fzBqlDA18-115" value="Quản lý" style="shape=umlActor;verticalLabelPosition=bottom;verticalAlign=top;html=1;outlineConnect=0;" vertex="1" parent="IrHY06osy-3fzBqlDA18-137">
          <mxGeometry x="510" y="130" width="30" height="60" as="geometry" />
        </mxCell>
        <mxCell id="IrHY06osy-3fzBqlDA18-116" value="Yêu cầu lập hóa đơn" style="ellipse;whiteSpace=wrap;html=1;" vertex="1" parent="IrHY06osy-3fzBqlDA18-137">
          <mxGeometry x="210" y="40" width="120" height="80" as="geometry" />
        </mxCell>
        <mxCell id="IrHY06osy-3fzBqlDA18-117" value="Chọn bàn cần lập hóa đơn" style="ellipse;whiteSpace=wrap;html=1;" vertex="1" parent="IrHY06osy-3fzBqlDA18-137">
          <mxGeometry x="210" y="170" width="120" height="80" as="geometry" />
        </mxCell>
        <mxCell id="IrHY06osy-3fzBqlDA18-120" value="Lập hóa đơn" style="ellipse;whiteSpace=wrap;html=1;" vertex="1" parent="IrHY06osy-3fzBqlDA18-137">
          <mxGeometry x="210" y="290" width="120" height="80" as="geometry" />
        </mxCell>
        <mxCell id="IrHY06osy-3fzBqlDA18-123" value="In hóa đơn" style="ellipse;whiteSpace=wrap;html=1;" vertex="1" parent="IrHY06osy-3fzBqlDA18-137">
          <mxGeometry x="210" y="410" width="120" height="80" as="geometry" />
        </mxCell>
        <mxCell id="IrHY06osy-3fzBqlDA18-124" style="rounded=0;orthogonalLoop=1;jettySize=auto;html=1;entryX=0;entryY=0.625;entryDx=0;entryDy=0;entryPerimeter=0;" edge="1" parent="IrHY06osy-3fzBqlDA18-137" source="IrHY06osy-3fzBqlDA18-113" target="IrHY06osy-3fzBqlDA18-116">
          <mxGeometry relative="1" as="geometry" />
        </mxCell>
        <mxCell id="IrHY06osy-3fzBqlDA18-125" style="rounded=0;orthogonalLoop=1;jettySize=auto;html=1;entryX=1.004;entryY=0.366;entryDx=0;entryDy=0;entryPerimeter=0;" edge="1" parent="IrHY06osy-3fzBqlDA18-137" target="IrHY06osy-3fzBqlDA18-116">
          <mxGeometry relative="1" as="geometry">
            <mxPoint x="510" y="160" as="sourcePoint" />
          </mxGeometry>
        </mxCell>
        <mxCell id="IrHY06osy-3fzBqlDA18-128" value="UCLAPHOADON" style="swimlane;whiteSpace=wrap;html=1;" vertex="1" parent="IrHY06osy-3fzBqlDA18-137">
          <mxGeometry x="80" width="380" height="520" as="geometry" />
        </mxCell>
        <mxCell id="IrHY06osy-3fzBqlDA18-129" value="" style="fontSize=12;html=1;endArrow=blockThin;endFill=1;startArrow=none;rounded=0;startFill=0;dashed=1;entryX=0.5;entryY=1;entryDx=0;entryDy=0;" edge="1" parent="IrHY06osy-3fzBqlDA18-128" target="IrHY06osy-3fzBqlDA18-117">
          <mxGeometry width="60" height="60" relative="1" as="geometry">
            <mxPoint x="190" y="290" as="sourcePoint" />
            <mxPoint x="275" y="220" as="targetPoint" />
          </mxGeometry>
        </mxCell>
        <mxCell id="IrHY06osy-3fzBqlDA18-130" value="" style="fontSize=12;html=1;endArrow=blockThin;endFill=1;startArrow=none;rounded=0;startFill=0;dashed=1;exitX=0.5;exitY=0;exitDx=0;exitDy=0;entryX=0.5;entryY=1;entryDx=0;entryDy=0;" edge="1" parent="IrHY06osy-3fzBqlDA18-137" source="IrHY06osy-3fzBqlDA18-123" target="IrHY06osy-3fzBqlDA18-120">
          <mxGeometry width="60" height="60" relative="1" as="geometry">
            <mxPoint x="130" y="340" as="sourcePoint" />
            <mxPoint x="190" y="280" as="targetPoint" />
          </mxGeometry>
        </mxCell>
        <mxCell id="IrHY06osy-3fzBqlDA18-131" value="" style="fontSize=12;html=1;endArrow=blockThin;endFill=1;startArrow=none;rounded=0;startFill=0;dashed=1;exitX=0.5;exitY=0;exitDx=0;exitDy=0;entryX=0.5;entryY=1;entryDx=0;entryDy=0;" edge="1" parent="IrHY06osy-3fzBqlDA18-137" source="IrHY06osy-3fzBqlDA18-117" target="IrHY06osy-3fzBqlDA18-116">
          <mxGeometry width="60" height="60" relative="1" as="geometry">
            <mxPoint x="240" y="260" as="sourcePoint" />
            <mxPoint x="300" y="200" as="targetPoint" />
          </mxGeometry>
        </mxCell>
        <mxCell id="IrHY06osy-3fzBqlDA18-177" value="" style="group" vertex="1" connectable="0" parent="1">
          <mxGeometry x="170" y="1780" width="540" height="520" as="geometry" />
        </mxCell>
        <mxCell id="IrHY06osy-3fzBqlDA18-178" value="" style="group" vertex="1" connectable="0" parent="IrHY06osy-3fzBqlDA18-177">
          <mxGeometry width="540" height="400" as="geometry" />
        </mxCell>
        <mxCell id="IrHY06osy-3fzBqlDA18-179" value="Nhân viên phục vụ&amp;nbsp;" style="shape=umlActor;verticalLabelPosition=bottom;verticalAlign=top;html=1;outlineConnect=0;" vertex="1" parent="IrHY06osy-3fzBqlDA18-178">
          <mxGeometry y="280" width="30" height="60" as="geometry" />
        </mxCell>
        <mxCell id="IrHY06osy-3fzBqlDA18-180" value="" style="group" vertex="1" connectable="0" parent="IrHY06osy-3fzBqlDA18-178">
          <mxGeometry x="30" width="510" height="400" as="geometry" />
        </mxCell>
        <mxCell id="IrHY06osy-3fzBqlDA18-181" style="rounded=0;orthogonalLoop=1;jettySize=auto;html=1;entryX=1;entryY=0.5;entryDx=0;entryDy=0;" edge="1" parent="IrHY06osy-3fzBqlDA18-180" source="IrHY06osy-3fzBqlDA18-182" target="IrHY06osy-3fzBqlDA18-184">
          <mxGeometry relative="1" as="geometry" />
        </mxCell>
        <mxCell id="IrHY06osy-3fzBqlDA18-182" value="Quản lý" style="shape=umlActor;verticalLabelPosition=bottom;verticalAlign=top;html=1;outlineConnect=0;" vertex="1" parent="IrHY06osy-3fzBqlDA18-180">
          <mxGeometry x="480" y="130" width="30" height="60" as="geometry" />
        </mxCell>
        <mxCell id="IrHY06osy-3fzBqlDA18-183" value="Yêu cầu tra cứu nhân viên&amp;nbsp;" style="ellipse;whiteSpace=wrap;html=1;" vertex="1" parent="IrHY06osy-3fzBqlDA18-180">
          <mxGeometry x="180" y="40" width="120" height="80" as="geometry" />
        </mxCell>
        <mxCell id="IrHY06osy-3fzBqlDA18-184" value="Nhập họ tên nhân viên cần tra cứu" style="ellipse;whiteSpace=wrap;html=1;" vertex="1" parent="IrHY06osy-3fzBqlDA18-180">
          <mxGeometry x="180" y="170" width="120" height="80" as="geometry" />
        </mxCell>
        <mxCell id="IrHY06osy-3fzBqlDA18-185" style="rounded=0;orthogonalLoop=1;jettySize=auto;html=1;" edge="1" parent="IrHY06osy-3fzBqlDA18-180" source="IrHY06osy-3fzBqlDA18-187">
          <mxGeometry relative="1" as="geometry">
            <mxPoint y="310" as="targetPoint" />
          </mxGeometry>
        </mxCell>
        <mxCell id="IrHY06osy-3fzBqlDA18-186" style="rounded=0;orthogonalLoop=1;jettySize=auto;html=1;" edge="1" parent="IrHY06osy-3fzBqlDA18-180" source="IrHY06osy-3fzBqlDA18-187">
          <mxGeometry relative="1" as="geometry">
            <mxPoint x="480" y="170" as="targetPoint" />
          </mxGeometry>
        </mxCell>
        <mxCell id="IrHY06osy-3fzBqlDA18-202" style="rounded=0;orthogonalLoop=1;jettySize=auto;html=1;" edge="1" parent="IrHY06osy-3fzBqlDA18-180" source="IrHY06osy-3fzBqlDA18-187">
          <mxGeometry relative="1" as="geometry">
            <mxPoint y="170" as="targetPoint" />
          </mxGeometry>
        </mxCell>
        <mxCell id="IrHY06osy-3fzBqlDA18-187" value="Kết quả tra cứu" style="ellipse;whiteSpace=wrap;html=1;" vertex="1" parent="IrHY06osy-3fzBqlDA18-180">
          <mxGeometry x="180" y="290" width="120" height="80" as="geometry" />
        </mxCell>
        <mxCell id="IrHY06osy-3fzBqlDA18-188" style="rounded=0;orthogonalLoop=1;jettySize=auto;html=1;entryX=1.004;entryY=0.366;entryDx=0;entryDy=0;entryPerimeter=0;" edge="1" parent="IrHY06osy-3fzBqlDA18-180" target="IrHY06osy-3fzBqlDA18-183">
          <mxGeometry relative="1" as="geometry">
            <mxPoint x="480" y="160" as="sourcePoint" />
          </mxGeometry>
        </mxCell>
        <mxCell id="IrHY06osy-3fzBqlDA18-189" value="UCTRACUUNHANVIENTHEOTEN" style="swimlane;whiteSpace=wrap;html=1;" vertex="1" parent="IrHY06osy-3fzBqlDA18-180">
          <mxGeometry x="50" width="380" height="400" as="geometry" />
        </mxCell>
        <mxCell id="IrHY06osy-3fzBqlDA18-190" value="" style="fontSize=12;html=1;endArrow=blockThin;endFill=1;startArrow=none;rounded=0;startFill=0;dashed=1;entryX=0.5;entryY=1;entryDx=0;entryDy=0;" edge="1" parent="IrHY06osy-3fzBqlDA18-189" target="IrHY06osy-3fzBqlDA18-184">
          <mxGeometry width="60" height="60" relative="1" as="geometry">
            <mxPoint x="190" y="290" as="sourcePoint" />
            <mxPoint x="275" y="220" as="targetPoint" />
          </mxGeometry>
        </mxCell>
        <mxCell id="IrHY06osy-3fzBqlDA18-191" value="" style="fontSize=12;html=1;endArrow=blockThin;endFill=1;startArrow=none;rounded=0;startFill=0;dashed=1;exitX=0.5;exitY=0;exitDx=0;exitDy=0;entryX=0.5;entryY=1;entryDx=0;entryDy=0;" edge="1" parent="IrHY06osy-3fzBqlDA18-180" source="IrHY06osy-3fzBqlDA18-184" target="IrHY06osy-3fzBqlDA18-183">
          <mxGeometry width="60" height="60" relative="1" as="geometry">
            <mxPoint x="210" y="260" as="sourcePoint" />
            <mxPoint x="270" y="200" as="targetPoint" />
          </mxGeometry>
        </mxCell>
        <mxCell id="IrHY06osy-3fzBqlDA18-192" style="rounded=0;orthogonalLoop=1;jettySize=auto;html=1;entryX=0;entryY=0.625;entryDx=0;entryDy=0;entryPerimeter=0;" edge="1" parent="IrHY06osy-3fzBqlDA18-178" source="IrHY06osy-3fzBqlDA18-179" target="IrHY06osy-3fzBqlDA18-183">
          <mxGeometry relative="1" as="geometry" />
        </mxCell>
        <mxCell id="IrHY06osy-3fzBqlDA18-193" style="rounded=0;orthogonalLoop=1;jettySize=auto;html=1;entryX=0;entryY=0.5;entryDx=0;entryDy=0;" edge="1" parent="IrHY06osy-3fzBqlDA18-178" source="IrHY06osy-3fzBqlDA18-179" target="IrHY06osy-3fzBqlDA18-184">
          <mxGeometry relative="1" as="geometry" />
        </mxCell>
        <mxCell id="IrHY06osy-3fzBqlDA18-196" style="rounded=0;orthogonalLoop=1;jettySize=auto;html=1;" edge="1" parent="IrHY06osy-3fzBqlDA18-178" source="IrHY06osy-3fzBqlDA18-195">
          <mxGeometry relative="1" as="geometry">
            <mxPoint x="210" y="90" as="targetPoint" />
          </mxGeometry>
        </mxCell>
        <mxCell id="IrHY06osy-3fzBqlDA18-197" style="rounded=0;orthogonalLoop=1;jettySize=auto;html=1;" edge="1" parent="IrHY06osy-3fzBqlDA18-178" source="IrHY06osy-3fzBqlDA18-195">
          <mxGeometry relative="1" as="geometry">
            <mxPoint x="210" y="220" as="targetPoint" />
          </mxGeometry>
        </mxCell>
        <mxCell id="IrHY06osy-3fzBqlDA18-195" value="Nhân viên nhà bếp&amp;nbsp;" style="shape=umlActor;verticalLabelPosition=bottom;verticalAlign=top;html=1;outlineConnect=0;" vertex="1" parent="IrHY06osy-3fzBqlDA18-178">
          <mxGeometry y="120" width="30" height="60" as="geometry" />
        </mxCell>
        <mxCell id="IrHY06osy-3fzBqlDA18-203" value="" style="group" vertex="1" connectable="0" parent="1">
          <mxGeometry x="170" y="1250" width="540" height="520" as="geometry" />
        </mxCell>
        <mxCell id="IrHY06osy-3fzBqlDA18-204" value="" style="group" vertex="1" connectable="0" parent="IrHY06osy-3fzBqlDA18-203">
          <mxGeometry width="540" height="400" as="geometry" />
        </mxCell>
        <mxCell id="IrHY06osy-3fzBqlDA18-205" value="Nhân viên phục vụ&amp;nbsp;" style="shape=umlActor;verticalLabelPosition=bottom;verticalAlign=top;html=1;outlineConnect=0;" vertex="1" parent="IrHY06osy-3fzBqlDA18-204">
          <mxGeometry y="280" width="30" height="60" as="geometry" />
        </mxCell>
        <mxCell id="IrHY06osy-3fzBqlDA18-206" value="" style="group" vertex="1" connectable="0" parent="IrHY06osy-3fzBqlDA18-204">
          <mxGeometry x="30" width="510" height="400" as="geometry" />
        </mxCell>
        <mxCell id="IrHY06osy-3fzBqlDA18-207" style="rounded=0;orthogonalLoop=1;jettySize=auto;html=1;entryX=1;entryY=0.5;entryDx=0;entryDy=0;" edge="1" parent="IrHY06osy-3fzBqlDA18-206" source="IrHY06osy-3fzBqlDA18-208" target="IrHY06osy-3fzBqlDA18-210">
          <mxGeometry relative="1" as="geometry" />
        </mxCell>
        <mxCell id="IrHY06osy-3fzBqlDA18-208" value="Quản lý" style="shape=umlActor;verticalLabelPosition=bottom;verticalAlign=top;html=1;outlineConnect=0;" vertex="1" parent="IrHY06osy-3fzBqlDA18-206">
          <mxGeometry x="480" y="130" width="30" height="60" as="geometry" />
        </mxCell>
        <mxCell id="IrHY06osy-3fzBqlDA18-209" value="Yêu cầu tra cứu theo tên thực đơn" style="ellipse;whiteSpace=wrap;html=1;" vertex="1" parent="IrHY06osy-3fzBqlDA18-206">
          <mxGeometry x="180" y="40" width="120" height="80" as="geometry" />
        </mxCell>
        <mxCell id="IrHY06osy-3fzBqlDA18-210" value="Nhập tên thực đơn" style="ellipse;whiteSpace=wrap;html=1;" vertex="1" parent="IrHY06osy-3fzBqlDA18-206">
          <mxGeometry x="180" y="170" width="120" height="80" as="geometry" />
        </mxCell>
        <mxCell id="IrHY06osy-3fzBqlDA18-211" style="rounded=0;orthogonalLoop=1;jettySize=auto;html=1;" edge="1" parent="IrHY06osy-3fzBqlDA18-206" source="IrHY06osy-3fzBqlDA18-214">
          <mxGeometry relative="1" as="geometry">
            <mxPoint y="310" as="targetPoint" />
          </mxGeometry>
        </mxCell>
        <mxCell id="IrHY06osy-3fzBqlDA18-212" style="rounded=0;orthogonalLoop=1;jettySize=auto;html=1;" edge="1" parent="IrHY06osy-3fzBqlDA18-206" source="IrHY06osy-3fzBqlDA18-214">
          <mxGeometry relative="1" as="geometry">
            <mxPoint x="480" y="170" as="targetPoint" />
          </mxGeometry>
        </mxCell>
        <mxCell id="IrHY06osy-3fzBqlDA18-213" style="rounded=0;orthogonalLoop=1;jettySize=auto;html=1;" edge="1" parent="IrHY06osy-3fzBqlDA18-206" source="IrHY06osy-3fzBqlDA18-214">
          <mxGeometry relative="1" as="geometry">
            <mxPoint y="170" as="targetPoint" />
          </mxGeometry>
        </mxCell>
        <mxCell id="IrHY06osy-3fzBqlDA18-214" value="Kết quả tra cứu" style="ellipse;whiteSpace=wrap;html=1;" vertex="1" parent="IrHY06osy-3fzBqlDA18-206">
          <mxGeometry x="180" y="290" width="120" height="80" as="geometry" />
        </mxCell>
        <mxCell id="IrHY06osy-3fzBqlDA18-215" style="rounded=0;orthogonalLoop=1;jettySize=auto;html=1;entryX=1.004;entryY=0.366;entryDx=0;entryDy=0;entryPerimeter=0;" edge="1" parent="IrHY06osy-3fzBqlDA18-206" target="IrHY06osy-3fzBqlDA18-209">
          <mxGeometry relative="1" as="geometry">
            <mxPoint x="480" y="160" as="sourcePoint" />
          </mxGeometry>
        </mxCell>
        <mxCell id="IrHY06osy-3fzBqlDA18-216" value="UCTRACUUTHEOTENTHUCDON" style="swimlane;whiteSpace=wrap;html=1;" vertex="1" parent="IrHY06osy-3fzBqlDA18-206">
          <mxGeometry x="50" width="380" height="400" as="geometry" />
        </mxCell>
        <mxCell id="IrHY06osy-3fzBqlDA18-217" value="" style="fontSize=12;html=1;endArrow=blockThin;endFill=1;startArrow=none;rounded=0;startFill=0;dashed=1;entryX=0.5;entryY=1;entryDx=0;entryDy=0;" edge="1" parent="IrHY06osy-3fzBqlDA18-216" target="IrHY06osy-3fzBqlDA18-210">
          <mxGeometry width="60" height="60" relative="1" as="geometry">
            <mxPoint x="190" y="290" as="sourcePoint" />
            <mxPoint x="275" y="220" as="targetPoint" />
          </mxGeometry>
        </mxCell>
        <mxCell id="IrHY06osy-3fzBqlDA18-218" value="" style="fontSize=12;html=1;endArrow=blockThin;endFill=1;startArrow=none;rounded=0;startFill=0;dashed=1;exitX=0.5;exitY=0;exitDx=0;exitDy=0;entryX=0.5;entryY=1;entryDx=0;entryDy=0;" edge="1" parent="IrHY06osy-3fzBqlDA18-206" source="IrHY06osy-3fzBqlDA18-210" target="IrHY06osy-3fzBqlDA18-209">
          <mxGeometry width="60" height="60" relative="1" as="geometry">
            <mxPoint x="210" y="260" as="sourcePoint" />
            <mxPoint x="270" y="200" as="targetPoint" />
          </mxGeometry>
        </mxCell>
        <mxCell id="IrHY06osy-3fzBqlDA18-219" style="rounded=0;orthogonalLoop=1;jettySize=auto;html=1;entryX=0;entryY=0.625;entryDx=0;entryDy=0;entryPerimeter=0;" edge="1" parent="IrHY06osy-3fzBqlDA18-204" source="IrHY06osy-3fzBqlDA18-205" target="IrHY06osy-3fzBqlDA18-209">
          <mxGeometry relative="1" as="geometry" />
        </mxCell>
        <mxCell id="IrHY06osy-3fzBqlDA18-220" style="rounded=0;orthogonalLoop=1;jettySize=auto;html=1;entryX=0;entryY=0.5;entryDx=0;entryDy=0;" edge="1" parent="IrHY06osy-3fzBqlDA18-204" source="IrHY06osy-3fzBqlDA18-205" target="IrHY06osy-3fzBqlDA18-210">
          <mxGeometry relative="1" as="geometry" />
        </mxCell>
        <mxCell id="IrHY06osy-3fzBqlDA18-221" style="rounded=0;orthogonalLoop=1;jettySize=auto;html=1;" edge="1" parent="IrHY06osy-3fzBqlDA18-204" source="IrHY06osy-3fzBqlDA18-223">
          <mxGeometry relative="1" as="geometry">
            <mxPoint x="210" y="90" as="targetPoint" />
          </mxGeometry>
        </mxCell>
        <mxCell id="IrHY06osy-3fzBqlDA18-222" style="rounded=0;orthogonalLoop=1;jettySize=auto;html=1;" edge="1" parent="IrHY06osy-3fzBqlDA18-204" source="IrHY06osy-3fzBqlDA18-223">
          <mxGeometry relative="1" as="geometry">
            <mxPoint x="210" y="220" as="targetPoint" />
          </mxGeometry>
        </mxCell>
        <mxCell id="IrHY06osy-3fzBqlDA18-223" value="Nhân viên nhà bếp&amp;nbsp;" style="shape=umlActor;verticalLabelPosition=bottom;verticalAlign=top;html=1;outlineConnect=0;" vertex="1" parent="IrHY06osy-3fzBqlDA18-204">
          <mxGeometry y="120" width="30" height="60" as="geometry" />
        </mxCell>
        <mxCell id="IrHY06osy-3fzBqlDA18-227" value="" style="group" vertex="1" connectable="0" parent="1">
          <mxGeometry x="220" y="2290" width="490" height="400" as="geometry" />
        </mxCell>
        <mxCell id="IrHY06osy-3fzBqlDA18-247" value="" style="group" vertex="1" connectable="0" parent="IrHY06osy-3fzBqlDA18-227">
          <mxGeometry x="48.03921568627451" width="441.96078431372547" height="400" as="geometry" />
        </mxCell>
        <mxCell id="IrHY06osy-3fzBqlDA18-228" style="rounded=0;orthogonalLoop=1;jettySize=auto;html=1;entryX=1;entryY=0.5;entryDx=0;entryDy=0;" edge="1" parent="IrHY06osy-3fzBqlDA18-247" source="IrHY06osy-3fzBqlDA18-229" target="IrHY06osy-3fzBqlDA18-231">
          <mxGeometry relative="1" as="geometry" />
        </mxCell>
        <mxCell id="IrHY06osy-3fzBqlDA18-229" value="Quản lý" style="shape=umlActor;verticalLabelPosition=bottom;verticalAlign=top;html=1;outlineConnect=0;" vertex="1" parent="IrHY06osy-3fzBqlDA18-247">
          <mxGeometry x="413.1372549019608" y="130" width="28.823529411764707" height="60" as="geometry" />
        </mxCell>
        <mxCell id="IrHY06osy-3fzBqlDA18-230" value="Yêu cầu thống kê doanh thu" style="ellipse;whiteSpace=wrap;html=1;" vertex="1" parent="IrHY06osy-3fzBqlDA18-247">
          <mxGeometry x="124.90196078431373" y="40" width="115.29411764705883" height="80" as="geometry" />
        </mxCell>
        <mxCell id="IrHY06osy-3fzBqlDA18-231" value="Chọn tiêu chí cần thống kê" style="ellipse;whiteSpace=wrap;html=1;" vertex="1" parent="IrHY06osy-3fzBqlDA18-247">
          <mxGeometry x="124.90196078431373" y="170" width="115.29411764705883" height="80" as="geometry" />
        </mxCell>
        <mxCell id="IrHY06osy-3fzBqlDA18-233" style="rounded=0;orthogonalLoop=1;jettySize=auto;html=1;" edge="1" parent="IrHY06osy-3fzBqlDA18-247" source="IrHY06osy-3fzBqlDA18-235">
          <mxGeometry relative="1" as="geometry">
            <mxPoint x="413.1372549019608" y="170" as="targetPoint" />
          </mxGeometry>
        </mxCell>
        <mxCell id="IrHY06osy-3fzBqlDA18-235" value="Kết quả thống kê" style="ellipse;whiteSpace=wrap;html=1;" vertex="1" parent="IrHY06osy-3fzBqlDA18-247">
          <mxGeometry x="124.90196078431373" y="290" width="115.29411764705883" height="80" as="geometry" />
        </mxCell>
        <mxCell id="IrHY06osy-3fzBqlDA18-236" style="rounded=0;orthogonalLoop=1;jettySize=auto;html=1;entryX=1.004;entryY=0.366;entryDx=0;entryDy=0;entryPerimeter=0;" edge="1" parent="IrHY06osy-3fzBqlDA18-247" target="IrHY06osy-3fzBqlDA18-230">
          <mxGeometry relative="1" as="geometry">
            <mxPoint x="413.1372549019608" y="160" as="sourcePoint" />
          </mxGeometry>
        </mxCell>
        <mxCell id="IrHY06osy-3fzBqlDA18-237" value="UCTHONGKEDOANHTHU" style="swimlane;whiteSpace=wrap;html=1;" vertex="1" parent="IrHY06osy-3fzBqlDA18-247">
          <mxGeometry width="365.0980392156863" height="400" as="geometry" />
        </mxCell>
        <mxCell id="IrHY06osy-3fzBqlDA18-238" value="" style="fontSize=12;html=1;endArrow=blockThin;endFill=1;startArrow=none;rounded=0;startFill=0;dashed=1;entryX=0.5;entryY=1;entryDx=0;entryDy=0;" edge="1" parent="IrHY06osy-3fzBqlDA18-237" target="IrHY06osy-3fzBqlDA18-231">
          <mxGeometry width="60" height="60" relative="1" as="geometry">
            <mxPoint x="182.54901960784315" y="290" as="sourcePoint" />
            <mxPoint x="264.21568627450984" y="220" as="targetPoint" />
          </mxGeometry>
        </mxCell>
        <mxCell id="IrHY06osy-3fzBqlDA18-239" value="" style="fontSize=12;html=1;endArrow=blockThin;endFill=1;startArrow=none;rounded=0;startFill=0;dashed=1;exitX=0.5;exitY=0;exitDx=0;exitDy=0;entryX=0.5;entryY=1;entryDx=0;entryDy=0;" edge="1" parent="IrHY06osy-3fzBqlDA18-247" source="IrHY06osy-3fzBqlDA18-231" target="IrHY06osy-3fzBqlDA18-230">
          <mxGeometry width="60" height="60" relative="1" as="geometry">
            <mxPoint x="153.72549019607845" y="260" as="sourcePoint" />
            <mxPoint x="211.37254901960787" y="200" as="targetPoint" />
          </mxGeometry>
        </mxCell>
        <mxCell id="IrHY06osy-3fzBqlDA18-248" value="" style="group" vertex="1" connectable="0" parent="1">
          <mxGeometry x="278.03921568627453" y="2760" width="441.96078431372547" height="400" as="geometry" />
        </mxCell>
        <mxCell id="IrHY06osy-3fzBqlDA18-249" style="rounded=0;orthogonalLoop=1;jettySize=auto;html=1;entryX=1;entryY=0.5;entryDx=0;entryDy=0;" edge="1" parent="IrHY06osy-3fzBqlDA18-248" source="IrHY06osy-3fzBqlDA18-250" target="IrHY06osy-3fzBqlDA18-252">
          <mxGeometry relative="1" as="geometry" />
        </mxCell>
        <mxCell id="IrHY06osy-3fzBqlDA18-259" style="rounded=0;orthogonalLoop=1;jettySize=auto;html=1;entryX=1;entryY=0.5;entryDx=0;entryDy=0;" edge="1" parent="IrHY06osy-3fzBqlDA18-248" source="IrHY06osy-3fzBqlDA18-250" target="IrHY06osy-3fzBqlDA18-254">
          <mxGeometry relative="1" as="geometry" />
        </mxCell>
        <mxCell id="IrHY06osy-3fzBqlDA18-250" value="Quản lý" style="shape=umlActor;verticalLabelPosition=bottom;verticalAlign=top;html=1;outlineConnect=0;" vertex="1" parent="IrHY06osy-3fzBqlDA18-248">
          <mxGeometry x="413.1372549019608" y="130" width="28.823529411764707" height="60" as="geometry" />
        </mxCell>
        <mxCell id="IrHY06osy-3fzBqlDA18-251" value="Thêm nhân viên" style="ellipse;whiteSpace=wrap;html=1;" vertex="1" parent="IrHY06osy-3fzBqlDA18-248">
          <mxGeometry x="124.90196078431373" y="40" width="115.29411764705883" height="80" as="geometry" />
        </mxCell>
        <mxCell id="IrHY06osy-3fzBqlDA18-252" value="Cập nhật thông tin nhân viên" style="ellipse;whiteSpace=wrap;html=1;" vertex="1" parent="IrHY06osy-3fzBqlDA18-248">
          <mxGeometry x="124.90196078431373" y="170" width="115.29411764705883" height="80" as="geometry" />
        </mxCell>
        <mxCell id="IrHY06osy-3fzBqlDA18-254" value="Xóa nhân viên" style="ellipse;whiteSpace=wrap;html=1;" vertex="1" parent="IrHY06osy-3fzBqlDA18-248">
          <mxGeometry x="124.90196078431373" y="290" width="115.29411764705883" height="80" as="geometry" />
        </mxCell>
        <mxCell id="IrHY06osy-3fzBqlDA18-255" style="rounded=0;orthogonalLoop=1;jettySize=auto;html=1;entryX=1.004;entryY=0.366;entryDx=0;entryDy=0;entryPerimeter=0;" edge="1" parent="IrHY06osy-3fzBqlDA18-248" target="IrHY06osy-3fzBqlDA18-251">
          <mxGeometry relative="1" as="geometry">
            <mxPoint x="413.1372549019608" y="160" as="sourcePoint" />
          </mxGeometry>
        </mxCell>
        <mxCell id="IrHY06osy-3fzBqlDA18-256" value="UCQUANLYNHANVIEN" style="swimlane;whiteSpace=wrap;html=1;" vertex="1" parent="IrHY06osy-3fzBqlDA18-248">
          <mxGeometry width="365.0980392156863" height="400" as="geometry" />
        </mxCell>
        <mxCell id="IrHY06osy-3fzBqlDA18-260" value="" style="group" vertex="1" connectable="0" parent="1">
          <mxGeometry x="230" y="3230" width="490" height="490" as="geometry" />
        </mxCell>
        <mxCell id="IrHY06osy-3fzBqlDA18-261" value="" style="group" vertex="1" connectable="0" parent="IrHY06osy-3fzBqlDA18-260">
          <mxGeometry x="48.03921568627451" width="441.96078431372547" height="490" as="geometry" />
        </mxCell>
        <mxCell id="IrHY06osy-3fzBqlDA18-262" style="rounded=0;orthogonalLoop=1;jettySize=auto;html=1;entryX=1;entryY=0.5;entryDx=0;entryDy=0;" edge="1" parent="IrHY06osy-3fzBqlDA18-261" source="IrHY06osy-3fzBqlDA18-263" target="IrHY06osy-3fzBqlDA18-265">
          <mxGeometry relative="1" as="geometry" />
        </mxCell>
        <mxCell id="IrHY06osy-3fzBqlDA18-276" style="rounded=0;orthogonalLoop=1;jettySize=auto;html=1;entryX=1;entryY=0.5;entryDx=0;entryDy=0;" edge="1" parent="IrHY06osy-3fzBqlDA18-261" source="IrHY06osy-3fzBqlDA18-263" target="IrHY06osy-3fzBqlDA18-267">
          <mxGeometry relative="1" as="geometry" />
        </mxCell>
        <mxCell id="IrHY06osy-3fzBqlDA18-263" value="Quản lý" style="shape=umlActor;verticalLabelPosition=bottom;verticalAlign=top;html=1;outlineConnect=0;" vertex="1" parent="IrHY06osy-3fzBqlDA18-261">
          <mxGeometry x="413.1372549019608" y="130" width="28.823529411764707" height="60" as="geometry" />
        </mxCell>
        <mxCell id="IrHY06osy-3fzBqlDA18-264" value="Yêu cầu thêm nhân viên" style="ellipse;whiteSpace=wrap;html=1;" vertex="1" parent="IrHY06osy-3fzBqlDA18-261">
          <mxGeometry x="124.90196078431373" y="40" width="115.29411764705883" height="80" as="geometry" />
        </mxCell>
        <mxCell id="IrHY06osy-3fzBqlDA18-265" value="Nhập thông tin nhân viên" style="ellipse;whiteSpace=wrap;html=1;" vertex="1" parent="IrHY06osy-3fzBqlDA18-261">
          <mxGeometry x="124.90196078431373" y="170" width="115.29411764705883" height="80" as="geometry" />
        </mxCell>
        <mxCell id="IrHY06osy-3fzBqlDA18-267" value="Xác nhận thông tin" style="ellipse;whiteSpace=wrap;html=1;" vertex="1" parent="IrHY06osy-3fzBqlDA18-261">
          <mxGeometry x="124.90196078431373" y="290" width="115.29411764705883" height="80" as="geometry" />
        </mxCell>
        <mxCell id="IrHY06osy-3fzBqlDA18-268" style="rounded=0;orthogonalLoop=1;jettySize=auto;html=1;entryX=1.004;entryY=0.366;entryDx=0;entryDy=0;entryPerimeter=0;" edge="1" parent="IrHY06osy-3fzBqlDA18-261" target="IrHY06osy-3fzBqlDA18-264">
          <mxGeometry relative="1" as="geometry">
            <mxPoint x="413.1372549019608" y="160" as="sourcePoint" />
          </mxGeometry>
        </mxCell>
        <mxCell id="IrHY06osy-3fzBqlDA18-269" value="UCTHEMNHANVIEN" style="swimlane;whiteSpace=wrap;html=1;" vertex="1" parent="IrHY06osy-3fzBqlDA18-261">
          <mxGeometry width="365.1" height="490" as="geometry" />
        </mxCell>
        <mxCell id="IrHY06osy-3fzBqlDA18-270" value="" style="fontSize=12;html=1;endArrow=blockThin;endFill=1;startArrow=none;rounded=0;startFill=0;dashed=1;entryX=0.5;entryY=1;entryDx=0;entryDy=0;" edge="1" parent="IrHY06osy-3fzBqlDA18-269" target="IrHY06osy-3fzBqlDA18-265">
          <mxGeometry width="60" height="60" relative="1" as="geometry">
            <mxPoint x="182.54901960784315" y="290" as="sourcePoint" />
            <mxPoint x="264.21568627450984" y="220" as="targetPoint" />
          </mxGeometry>
        </mxCell>
        <mxCell id="IrHY06osy-3fzBqlDA18-273" value="Trả kết quả" style="ellipse;whiteSpace=wrap;html=1;" vertex="1" parent="IrHY06osy-3fzBqlDA18-269">
          <mxGeometry x="124.90196078431373" y="400" width="115.29411764705883" height="80" as="geometry" />
        </mxCell>
        <mxCell id="IrHY06osy-3fzBqlDA18-271" value="" style="fontSize=12;html=1;endArrow=blockThin;endFill=1;startArrow=none;rounded=0;startFill=0;dashed=1;exitX=0.5;exitY=0;exitDx=0;exitDy=0;entryX=0.5;entryY=1;entryDx=0;entryDy=0;" edge="1" parent="IrHY06osy-3fzBqlDA18-261" source="IrHY06osy-3fzBqlDA18-265" target="IrHY06osy-3fzBqlDA18-264">
          <mxGeometry width="60" height="60" relative="1" as="geometry">
            <mxPoint x="153.72549019607845" y="260" as="sourcePoint" />
            <mxPoint x="211.37254901960787" y="200" as="targetPoint" />
          </mxGeometry>
        </mxCell>
        <mxCell id="IrHY06osy-3fzBqlDA18-277" style="rounded=0;orthogonalLoop=1;jettySize=auto;html=1;" edge="1" parent="IrHY06osy-3fzBqlDA18-261" source="IrHY06osy-3fzBqlDA18-273" target="IrHY06osy-3fzBqlDA18-263">
          <mxGeometry relative="1" as="geometry" />
        </mxCell>
        <mxCell id="IrHY06osy-3fzBqlDA18-275" value="" style="fontSize=12;html=1;endArrow=blockThin;endFill=1;startArrow=none;rounded=0;startFill=0;dashed=1;entryX=0.5;entryY=1;entryDx=0;entryDy=0;" edge="1" parent="1" target="IrHY06osy-3fzBqlDA18-267">
          <mxGeometry width="60" height="60" relative="1" as="geometry">
            <mxPoint x="460" y="3630" as="sourcePoint" />
            <mxPoint x="550" y="3260" as="targetPoint" />
          </mxGeometry>
        </mxCell>
        <mxCell id="IrHY06osy-3fzBqlDA18-303" value="" style="group" vertex="1" connectable="0" parent="1">
          <mxGeometry x="278.03921568627453" y="3780" width="460.7807843137255" height="610" as="geometry" />
        </mxCell>
        <mxCell id="IrHY06osy-3fzBqlDA18-279" value="" style="group" vertex="1" connectable="0" parent="IrHY06osy-3fzBqlDA18-303">
          <mxGeometry width="441.96078431372547" height="610" as="geometry" />
        </mxCell>
        <mxCell id="IrHY06osy-3fzBqlDA18-283" value="Yêu cầu cập nhật thông tin" style="ellipse;whiteSpace=wrap;html=1;" vertex="1" parent="IrHY06osy-3fzBqlDA18-279">
          <mxGeometry x="124.90196078431373" y="40" width="115.29411764705883" height="80" as="geometry" />
        </mxCell>
        <mxCell id="IrHY06osy-3fzBqlDA18-284" value="Chọn nhân viên cần cập nhật" style="ellipse;whiteSpace=wrap;html=1;" vertex="1" parent="IrHY06osy-3fzBqlDA18-279">
          <mxGeometry x="124.90196078431373" y="170" width="115.29411764705883" height="80" as="geometry" />
        </mxCell>
        <mxCell id="IrHY06osy-3fzBqlDA18-285" value="Nhập thông tin mới" style="ellipse;whiteSpace=wrap;html=1;" vertex="1" parent="IrHY06osy-3fzBqlDA18-279">
          <mxGeometry x="124.90196078431373" y="290" width="115.29411764705883" height="80" as="geometry" />
        </mxCell>
        <mxCell id="IrHY06osy-3fzBqlDA18-287" value="UCCAPNHATTHONGTINNHANVIEN" style="swimlane;whiteSpace=wrap;html=1;" vertex="1" parent="IrHY06osy-3fzBqlDA18-279">
          <mxGeometry width="365.1" height="610" as="geometry" />
        </mxCell>
        <mxCell id="IrHY06osy-3fzBqlDA18-288" value="" style="fontSize=12;html=1;endArrow=blockThin;endFill=1;startArrow=none;rounded=0;startFill=0;dashed=1;entryX=0.5;entryY=1;entryDx=0;entryDy=0;" edge="1" parent="IrHY06osy-3fzBqlDA18-287" target="IrHY06osy-3fzBqlDA18-284">
          <mxGeometry width="60" height="60" relative="1" as="geometry">
            <mxPoint x="182.54901960784315" y="290" as="sourcePoint" />
            <mxPoint x="264.21568627450984" y="220" as="targetPoint" />
          </mxGeometry>
        </mxCell>
        <mxCell id="IrHY06osy-3fzBqlDA18-289" value="Yêu cầu ghi nhận thông tin" style="ellipse;whiteSpace=wrap;html=1;" vertex="1" parent="IrHY06osy-3fzBqlDA18-287">
          <mxGeometry x="124.90196078431373" y="400" width="115.29411764705883" height="80" as="geometry" />
        </mxCell>
        <mxCell id="IrHY06osy-3fzBqlDA18-293" value="Kết quả cập nhật" style="ellipse;whiteSpace=wrap;html=1;" vertex="1" parent="IrHY06osy-3fzBqlDA18-287">
          <mxGeometry x="124.90196078431373" y="520" width="115.29411764705883" height="80" as="geometry" />
        </mxCell>
        <mxCell id="IrHY06osy-3fzBqlDA18-296" value="" style="fontSize=12;html=1;endArrow=blockThin;endFill=1;startArrow=none;rounded=0;startFill=0;dashed=1;exitX=0.5;exitY=0;exitDx=0;exitDy=0;entryX=0.5;entryY=1;entryDx=0;entryDy=0;" edge="1" parent="IrHY06osy-3fzBqlDA18-287" source="IrHY06osy-3fzBqlDA18-293" target="IrHY06osy-3fzBqlDA18-289">
          <mxGeometry width="60" height="60" relative="1" as="geometry">
            <mxPoint x="211.96078431372547" y="580" as="sourcePoint" />
            <mxPoint x="271.96078431372547" y="520" as="targetPoint" />
          </mxGeometry>
        </mxCell>
        <mxCell id="IrHY06osy-3fzBqlDA18-290" value="" style="fontSize=12;html=1;endArrow=blockThin;endFill=1;startArrow=none;rounded=0;startFill=0;dashed=1;exitX=0.5;exitY=0;exitDx=0;exitDy=0;entryX=0.5;entryY=1;entryDx=0;entryDy=0;" edge="1" parent="IrHY06osy-3fzBqlDA18-279" source="IrHY06osy-3fzBqlDA18-284" target="IrHY06osy-3fzBqlDA18-283">
          <mxGeometry width="60" height="60" relative="1" as="geometry">
            <mxPoint x="153.72549019607845" y="260" as="sourcePoint" />
            <mxPoint x="211.37254901960787" y="200" as="targetPoint" />
          </mxGeometry>
        </mxCell>
        <mxCell id="IrHY06osy-3fzBqlDA18-297" value="" style="fontSize=12;html=1;endArrow=blockThin;endFill=1;startArrow=none;rounded=0;startFill=0;dashed=1;exitX=0.5;exitY=0;exitDx=0;exitDy=0;entryX=0.5;entryY=1;entryDx=0;entryDy=0;" edge="1" parent="IrHY06osy-3fzBqlDA18-279" source="IrHY06osy-3fzBqlDA18-289" target="IrHY06osy-3fzBqlDA18-285">
          <mxGeometry width="60" height="60" relative="1" as="geometry">
            <mxPoint x="211.96078431372547" y="580" as="sourcePoint" />
            <mxPoint x="271.96078431372547" y="520" as="targetPoint" />
          </mxGeometry>
        </mxCell>
        <mxCell id="IrHY06osy-3fzBqlDA18-282" value="Quản lý" style="shape=umlActor;verticalLabelPosition=bottom;verticalAlign=top;html=1;outlineConnect=0;" vertex="1" parent="IrHY06osy-3fzBqlDA18-303">
          <mxGeometry x="431.95725490196077" y="200" width="28.823529411764707" height="60" as="geometry" />
        </mxCell>
        <mxCell id="IrHY06osy-3fzBqlDA18-280" style="rounded=0;orthogonalLoop=1;jettySize=auto;html=1;entryX=1;entryY=0.5;entryDx=0;entryDy=0;" edge="1" parent="IrHY06osy-3fzBqlDA18-303" source="IrHY06osy-3fzBqlDA18-282" target="IrHY06osy-3fzBqlDA18-284">
          <mxGeometry relative="1" as="geometry" />
        </mxCell>
        <mxCell id="IrHY06osy-3fzBqlDA18-281" style="rounded=0;orthogonalLoop=1;jettySize=auto;html=1;entryX=1;entryY=0.5;entryDx=0;entryDy=0;" edge="1" parent="IrHY06osy-3fzBqlDA18-303" source="IrHY06osy-3fzBqlDA18-282" target="IrHY06osy-3fzBqlDA18-285">
          <mxGeometry relative="1" as="geometry" />
        </mxCell>
        <mxCell id="IrHY06osy-3fzBqlDA18-300" style="rounded=0;orthogonalLoop=1;jettySize=auto;html=1;entryX=1;entryY=0.5;entryDx=0;entryDy=0;" edge="1" parent="IrHY06osy-3fzBqlDA18-303" source="IrHY06osy-3fzBqlDA18-282" target="IrHY06osy-3fzBqlDA18-289">
          <mxGeometry relative="1" as="geometry" />
        </mxCell>
        <mxCell id="IrHY06osy-3fzBqlDA18-301" style="rounded=0;orthogonalLoop=1;jettySize=auto;html=1;" edge="1" parent="IrHY06osy-3fzBqlDA18-303" source="IrHY06osy-3fzBqlDA18-293" target="IrHY06osy-3fzBqlDA18-282">
          <mxGeometry relative="1" as="geometry" />
        </mxCell>
        <mxCell id="IrHY06osy-3fzBqlDA18-286" style="rounded=0;orthogonalLoop=1;jettySize=auto;html=1;entryX=1.004;entryY=0.366;entryDx=0;entryDy=0;entryPerimeter=0;exitX=0;exitY=0.3333333333333333;exitDx=0;exitDy=0;exitPerimeter=0;" edge="1" parent="IrHY06osy-3fzBqlDA18-303" target="IrHY06osy-3fzBqlDA18-283" source="IrHY06osy-3fzBqlDA18-282">
          <mxGeometry relative="1" as="geometry">
            <mxPoint x="413.13725490196083" y="160" as="sourcePoint" />
          </mxGeometry>
        </mxCell>
        <mxCell id="IrHY06osy-3fzBqlDA18-304" value="" style="group" vertex="1" connectable="0" parent="1">
          <mxGeometry x="230" y="4430" width="490" height="880" as="geometry" />
        </mxCell>
        <mxCell id="IrHY06osy-3fzBqlDA18-319" value="" style="group" vertex="1" connectable="0" parent="IrHY06osy-3fzBqlDA18-304">
          <mxGeometry x="48.03921568627453" y="480" width="441.96078431372547" height="400" as="geometry" />
        </mxCell>
        <mxCell id="IrHY06osy-3fzBqlDA18-320" style="rounded=0;orthogonalLoop=1;jettySize=auto;html=1;entryX=1;entryY=0.5;entryDx=0;entryDy=0;" edge="1" parent="IrHY06osy-3fzBqlDA18-319" source="IrHY06osy-3fzBqlDA18-322" target="IrHY06osy-3fzBqlDA18-324">
          <mxGeometry relative="1" as="geometry" />
        </mxCell>
        <mxCell id="IrHY06osy-3fzBqlDA18-321" style="rounded=0;orthogonalLoop=1;jettySize=auto;html=1;entryX=1;entryY=0.5;entryDx=0;entryDy=0;" edge="1" parent="IrHY06osy-3fzBqlDA18-319" source="IrHY06osy-3fzBqlDA18-322" target="IrHY06osy-3fzBqlDA18-325">
          <mxGeometry relative="1" as="geometry" />
        </mxCell>
        <mxCell id="IrHY06osy-3fzBqlDA18-322" value="Quản lý" style="shape=umlActor;verticalLabelPosition=bottom;verticalAlign=top;html=1;outlineConnect=0;" vertex="1" parent="IrHY06osy-3fzBqlDA18-319">
          <mxGeometry x="413.1372549019608" y="130" width="28.823529411764707" height="60" as="geometry" />
        </mxCell>
        <mxCell id="IrHY06osy-3fzBqlDA18-323" value="Thêm thực đơn" style="ellipse;whiteSpace=wrap;html=1;" vertex="1" parent="IrHY06osy-3fzBqlDA18-319">
          <mxGeometry x="124.90196078431373" y="40" width="115.29411764705883" height="80" as="geometry" />
        </mxCell>
        <mxCell id="IrHY06osy-3fzBqlDA18-324" value="Cập nhật thực đơn" style="ellipse;whiteSpace=wrap;html=1;" vertex="1" parent="IrHY06osy-3fzBqlDA18-319">
          <mxGeometry x="124.90196078431373" y="170" width="115.29411764705883" height="80" as="geometry" />
        </mxCell>
        <mxCell id="IrHY06osy-3fzBqlDA18-325" value="Xóa thực đơn" style="ellipse;whiteSpace=wrap;html=1;" vertex="1" parent="IrHY06osy-3fzBqlDA18-319">
          <mxGeometry x="124.90196078431373" y="290" width="115.29411764705883" height="80" as="geometry" />
        </mxCell>
        <mxCell id="IrHY06osy-3fzBqlDA18-326" style="rounded=0;orthogonalLoop=1;jettySize=auto;html=1;entryX=1.004;entryY=0.366;entryDx=0;entryDy=0;entryPerimeter=0;" edge="1" parent="IrHY06osy-3fzBqlDA18-319" target="IrHY06osy-3fzBqlDA18-323">
          <mxGeometry relative="1" as="geometry">
            <mxPoint x="413.1372549019608" y="160" as="sourcePoint" />
          </mxGeometry>
        </mxCell>
        <mxCell id="IrHY06osy-3fzBqlDA18-327" value="UCQUANLYTHUCDON" style="swimlane;whiteSpace=wrap;html=1;" vertex="1" parent="IrHY06osy-3fzBqlDA18-319">
          <mxGeometry width="365.0980392156863" height="400" as="geometry" />
        </mxCell>
        <mxCell id="IrHY06osy-3fzBqlDA18-347" value="" style="group" vertex="1" connectable="0" parent="IrHY06osy-3fzBqlDA18-304">
          <mxGeometry x="48.03921568627453" width="441.96078431372547" height="390" as="geometry" />
        </mxCell>
        <mxCell id="IrHY06osy-3fzBqlDA18-306" style="rounded=0;orthogonalLoop=1;jettySize=auto;html=1;entryX=1;entryY=0.5;entryDx=0;entryDy=0;" edge="1" parent="IrHY06osy-3fzBqlDA18-347" source="IrHY06osy-3fzBqlDA18-308" target="IrHY06osy-3fzBqlDA18-310">
          <mxGeometry relative="1" as="geometry" />
        </mxCell>
        <mxCell id="IrHY06osy-3fzBqlDA18-307" style="rounded=0;orthogonalLoop=1;jettySize=auto;html=1;entryX=1;entryY=0.5;entryDx=0;entryDy=0;" edge="1" parent="IrHY06osy-3fzBqlDA18-347" source="IrHY06osy-3fzBqlDA18-308" target="IrHY06osy-3fzBqlDA18-311">
          <mxGeometry relative="1" as="geometry" />
        </mxCell>
        <mxCell id="IrHY06osy-3fzBqlDA18-308" value="Quản lý" style="shape=umlActor;verticalLabelPosition=bottom;verticalAlign=top;html=1;outlineConnect=0;" vertex="1" parent="IrHY06osy-3fzBqlDA18-347">
          <mxGeometry x="413.1372549019608" y="130" width="28.823529411764707" height="60" as="geometry" />
        </mxCell>
        <mxCell id="IrHY06osy-3fzBqlDA18-309" value="Yêu cầu xóa nhân viên" style="ellipse;whiteSpace=wrap;html=1;" vertex="1" parent="IrHY06osy-3fzBqlDA18-347">
          <mxGeometry x="124.90196078431373" y="40" width="115.29411764705883" height="80" as="geometry" />
        </mxCell>
        <mxCell id="IrHY06osy-3fzBqlDA18-310" value="Chọn nhân viên cần xóa" style="ellipse;whiteSpace=wrap;html=1;" vertex="1" parent="IrHY06osy-3fzBqlDA18-347">
          <mxGeometry x="124.90196078431373" y="170" width="115.29411764705883" height="80" as="geometry" />
        </mxCell>
        <mxCell id="IrHY06osy-3fzBqlDA18-311" value="Kết quả xóa nhân viên" style="ellipse;whiteSpace=wrap;html=1;" vertex="1" parent="IrHY06osy-3fzBqlDA18-347">
          <mxGeometry x="124.90196078431373" y="290" width="115.29411764705883" height="80" as="geometry" />
        </mxCell>
        <mxCell id="IrHY06osy-3fzBqlDA18-312" style="rounded=0;orthogonalLoop=1;jettySize=auto;html=1;entryX=1.004;entryY=0.366;entryDx=0;entryDy=0;entryPerimeter=0;" edge="1" parent="IrHY06osy-3fzBqlDA18-347" target="IrHY06osy-3fzBqlDA18-309">
          <mxGeometry relative="1" as="geometry">
            <mxPoint x="413.1372549019608" y="160" as="sourcePoint" />
          </mxGeometry>
        </mxCell>
        <mxCell id="IrHY06osy-3fzBqlDA18-313" value="UCXOANHANVIEN" style="swimlane;whiteSpace=wrap;html=1;" vertex="1" parent="IrHY06osy-3fzBqlDA18-347">
          <mxGeometry width="365.1" height="390" as="geometry" />
        </mxCell>
        <mxCell id="IrHY06osy-3fzBqlDA18-314" value="" style="fontSize=12;html=1;endArrow=blockThin;endFill=1;startArrow=none;rounded=0;startFill=0;dashed=1;entryX=0.5;entryY=1;entryDx=0;entryDy=0;" edge="1" parent="IrHY06osy-3fzBqlDA18-313" target="IrHY06osy-3fzBqlDA18-310">
          <mxGeometry width="60" height="60" relative="1" as="geometry">
            <mxPoint x="182.54901960784315" y="290" as="sourcePoint" />
            <mxPoint x="264.21568627450984" y="220" as="targetPoint" />
          </mxGeometry>
        </mxCell>
        <mxCell id="IrHY06osy-3fzBqlDA18-316" value="" style="fontSize=12;html=1;endArrow=blockThin;endFill=1;startArrow=none;rounded=0;startFill=0;dashed=1;exitX=0.5;exitY=0;exitDx=0;exitDy=0;entryX=0.5;entryY=1;entryDx=0;entryDy=0;" edge="1" parent="IrHY06osy-3fzBqlDA18-347" source="IrHY06osy-3fzBqlDA18-310" target="IrHY06osy-3fzBqlDA18-309">
          <mxGeometry width="60" height="60" relative="1" as="geometry">
            <mxPoint x="153.72549019607845" y="260" as="sourcePoint" />
            <mxPoint x="211.3725490196079" y="200" as="targetPoint" />
          </mxGeometry>
        </mxCell>
        <mxCell id="IrHY06osy-3fzBqlDA18-328" value="" style="group" vertex="1" connectable="0" parent="1">
          <mxGeometry x="287.44921568627456" y="5390" width="441.96078431372547" height="560" as="geometry" />
        </mxCell>
        <mxCell id="IrHY06osy-3fzBqlDA18-329" style="rounded=0;orthogonalLoop=1;jettySize=auto;html=1;entryX=1;entryY=0.5;entryDx=0;entryDy=0;" edge="1" parent="IrHY06osy-3fzBqlDA18-328" source="IrHY06osy-3fzBqlDA18-331" target="IrHY06osy-3fzBqlDA18-333">
          <mxGeometry relative="1" as="geometry" />
        </mxCell>
        <mxCell id="IrHY06osy-3fzBqlDA18-330" style="rounded=0;orthogonalLoop=1;jettySize=auto;html=1;entryX=1;entryY=0.5;entryDx=0;entryDy=0;" edge="1" parent="IrHY06osy-3fzBqlDA18-328" source="IrHY06osy-3fzBqlDA18-331" target="IrHY06osy-3fzBqlDA18-334">
          <mxGeometry relative="1" as="geometry" />
        </mxCell>
        <mxCell id="IrHY06osy-3fzBqlDA18-345" style="rounded=0;orthogonalLoop=1;jettySize=auto;html=1;entryX=1;entryY=0.5;entryDx=0;entryDy=0;" edge="1" parent="IrHY06osy-3fzBqlDA18-328" source="IrHY06osy-3fzBqlDA18-331" target="IrHY06osy-3fzBqlDA18-343">
          <mxGeometry relative="1" as="geometry" />
        </mxCell>
        <mxCell id="IrHY06osy-3fzBqlDA18-331" value="Quản lý" style="shape=umlActor;verticalLabelPosition=bottom;verticalAlign=top;html=1;outlineConnect=0;" vertex="1" parent="IrHY06osy-3fzBqlDA18-328">
          <mxGeometry x="413.1372549019608" y="250" width="28.823529411764707" height="60" as="geometry" />
        </mxCell>
        <mxCell id="IrHY06osy-3fzBqlDA18-335" style="rounded=0;orthogonalLoop=1;jettySize=auto;html=1;entryX=1.004;entryY=0.366;entryDx=0;entryDy=0;entryPerimeter=0;exitX=0;exitY=0.3333333333333333;exitDx=0;exitDy=0;exitPerimeter=0;" edge="1" parent="IrHY06osy-3fzBqlDA18-328" target="IrHY06osy-3fzBqlDA18-332" source="IrHY06osy-3fzBqlDA18-331">
          <mxGeometry relative="1" as="geometry">
            <mxPoint x="413.1372549019608" y="160" as="sourcePoint" />
          </mxGeometry>
        </mxCell>
        <mxCell id="IrHY06osy-3fzBqlDA18-336" value="UCCAPNHATTHUCDON" style="swimlane;whiteSpace=wrap;html=1;" vertex="1" parent="IrHY06osy-3fzBqlDA18-328">
          <mxGeometry x="2.55" y="10" width="340" height="560" as="geometry" />
        </mxCell>
        <mxCell id="IrHY06osy-3fzBqlDA18-337" value="" style="fontSize=12;html=1;endArrow=blockThin;endFill=1;startArrow=none;rounded=0;startFill=0;dashed=1;entryX=0.5;entryY=1;entryDx=0;entryDy=0;exitX=0.5;exitY=0;exitDx=0;exitDy=0;" edge="1" parent="IrHY06osy-3fzBqlDA18-336" target="IrHY06osy-3fzBqlDA18-333" source="IrHY06osy-3fzBqlDA18-334">
          <mxGeometry width="60" height="60" relative="1" as="geometry">
            <mxPoint x="182.54901960784315" y="290" as="sourcePoint" />
            <mxPoint x="264.21568627450984" y="220" as="targetPoint" />
          </mxGeometry>
        </mxCell>
        <mxCell id="IrHY06osy-3fzBqlDA18-338" value="Trả kết quả" style="ellipse;whiteSpace=wrap;html=1;" vertex="1" parent="IrHY06osy-3fzBqlDA18-336">
          <mxGeometry x="112.35196078431373" y="480" width="115.29411764705883" height="80" as="geometry" />
        </mxCell>
        <mxCell id="IrHY06osy-3fzBqlDA18-333" value="Chọn thực đơn cập nhật" style="ellipse;whiteSpace=wrap;html=1;" vertex="1" parent="IrHY06osy-3fzBqlDA18-336">
          <mxGeometry x="112.35196078431373" y="145" width="115.29411764705883" height="80" as="geometry" />
        </mxCell>
        <mxCell id="IrHY06osy-3fzBqlDA18-334" value="Nhập thông tin thực đơn cập nhật" style="ellipse;whiteSpace=wrap;html=1;" vertex="1" parent="IrHY06osy-3fzBqlDA18-336">
          <mxGeometry x="112.35196078431373" y="260" width="115.29411764705883" height="80" as="geometry" />
        </mxCell>
        <mxCell id="IrHY06osy-3fzBqlDA18-343" value="Ghi nhận thông tin thực đơn" style="ellipse;whiteSpace=wrap;html=1;" vertex="1" parent="IrHY06osy-3fzBqlDA18-336">
          <mxGeometry x="111.96196078431373" y="370" width="115.29411764705883" height="80" as="geometry" />
        </mxCell>
        <mxCell id="IrHY06osy-3fzBqlDA18-332" value="Yêu cầu cập nhật thực đơn" style="ellipse;whiteSpace=wrap;html=1;" vertex="1" parent="IrHY06osy-3fzBqlDA18-336">
          <mxGeometry x="111.96196078431373" y="40" width="115.29411764705883" height="80" as="geometry" />
        </mxCell>
        <mxCell id="IrHY06osy-3fzBqlDA18-339" value="" style="fontSize=12;html=1;endArrow=blockThin;endFill=1;startArrow=none;rounded=0;startFill=0;dashed=1;exitX=0.5;exitY=0;exitDx=0;exitDy=0;entryX=0.5;entryY=1;entryDx=0;entryDy=0;" edge="1" parent="IrHY06osy-3fzBqlDA18-336" source="IrHY06osy-3fzBqlDA18-333" target="IrHY06osy-3fzBqlDA18-332">
          <mxGeometry width="60" height="60" relative="1" as="geometry">
            <mxPoint x="153.72549019607845" y="260" as="sourcePoint" />
            <mxPoint x="211.37254901960787" y="200" as="targetPoint" />
          </mxGeometry>
        </mxCell>
        <mxCell id="IrHY06osy-3fzBqlDA18-344" value="" style="fontSize=12;html=1;endArrow=blockThin;endFill=1;startArrow=none;rounded=0;startFill=0;dashed=1;exitX=0.5;exitY=0;exitDx=0;exitDy=0;entryX=0.5;entryY=1;entryDx=0;entryDy=0;" edge="1" parent="IrHY06osy-3fzBqlDA18-336" source="IrHY06osy-3fzBqlDA18-343" target="IrHY06osy-3fzBqlDA18-334">
          <mxGeometry width="60" height="60" relative="1" as="geometry">
            <mxPoint x="200.00078431372543" y="370" as="sourcePoint" />
            <mxPoint x="260.00078431372543" y="310" as="targetPoint" />
          </mxGeometry>
        </mxCell>
        <mxCell id="IrHY06osy-3fzBqlDA18-346" value="" style="fontSize=12;html=1;endArrow=blockThin;endFill=1;startArrow=none;rounded=0;startFill=0;dashed=1;exitX=0.5;exitY=0;exitDx=0;exitDy=0;entryX=0.5;entryY=1;entryDx=0;entryDy=0;" edge="1" parent="IrHY06osy-3fzBqlDA18-336" source="IrHY06osy-3fzBqlDA18-338" target="IrHY06osy-3fzBqlDA18-343">
          <mxGeometry width="60" height="60" relative="1" as="geometry">
            <mxPoint x="200.00078431372543" y="360" as="sourcePoint" />
            <mxPoint x="250.00078431372543" y="310" as="targetPoint" />
          </mxGeometry>
        </mxCell>
        <mxCell id="IrHY06osy-3fzBqlDA18-340" style="rounded=0;orthogonalLoop=1;jettySize=auto;html=1;" edge="1" parent="IrHY06osy-3fzBqlDA18-328" source="IrHY06osy-3fzBqlDA18-338" target="IrHY06osy-3fzBqlDA18-331">
          <mxGeometry relative="1" as="geometry" />
        </mxCell>
        <mxCell id="IrHY06osy-3fzBqlDA18-348" value="" style="group" vertex="1" connectable="0" parent="1">
          <mxGeometry x="278.03921568627453" y="6000" width="441.96078431372547" height="390" as="geometry" />
        </mxCell>
        <mxCell id="IrHY06osy-3fzBqlDA18-349" style="rounded=0;orthogonalLoop=1;jettySize=auto;html=1;entryX=1;entryY=0.5;entryDx=0;entryDy=0;" edge="1" parent="IrHY06osy-3fzBqlDA18-348" source="IrHY06osy-3fzBqlDA18-351" target="IrHY06osy-3fzBqlDA18-353">
          <mxGeometry relative="1" as="geometry" />
        </mxCell>
        <mxCell id="IrHY06osy-3fzBqlDA18-350" style="rounded=0;orthogonalLoop=1;jettySize=auto;html=1;entryX=1;entryY=0.5;entryDx=0;entryDy=0;" edge="1" parent="IrHY06osy-3fzBqlDA18-348" source="IrHY06osy-3fzBqlDA18-351" target="IrHY06osy-3fzBqlDA18-354">
          <mxGeometry relative="1" as="geometry" />
        </mxCell>
        <mxCell id="IrHY06osy-3fzBqlDA18-351" value="Quản lý" style="shape=umlActor;verticalLabelPosition=bottom;verticalAlign=top;html=1;outlineConnect=0;" vertex="1" parent="IrHY06osy-3fzBqlDA18-348">
          <mxGeometry x="413.1372549019608" y="130" width="28.823529411764707" height="60" as="geometry" />
        </mxCell>
        <mxCell id="IrHY06osy-3fzBqlDA18-352" value="Yêu cầu xóa thực đơn" style="ellipse;whiteSpace=wrap;html=1;" vertex="1" parent="IrHY06osy-3fzBqlDA18-348">
          <mxGeometry x="124.90196078431373" y="40" width="115.29411764705883" height="80" as="geometry" />
        </mxCell>
        <mxCell id="IrHY06osy-3fzBqlDA18-353" value="Chọn loại thực đơn cần xóa" style="ellipse;whiteSpace=wrap;html=1;" vertex="1" parent="IrHY06osy-3fzBqlDA18-348">
          <mxGeometry x="124.90196078431373" y="170" width="115.29411764705883" height="80" as="geometry" />
        </mxCell>
        <mxCell id="IrHY06osy-3fzBqlDA18-354" value="Kết quả xóa thực đơn" style="ellipse;whiteSpace=wrap;html=1;" vertex="1" parent="IrHY06osy-3fzBqlDA18-348">
          <mxGeometry x="124.90196078431373" y="290" width="115.29411764705883" height="80" as="geometry" />
        </mxCell>
        <mxCell id="IrHY06osy-3fzBqlDA18-355" style="rounded=0;orthogonalLoop=1;jettySize=auto;html=1;entryX=1.004;entryY=0.366;entryDx=0;entryDy=0;entryPerimeter=0;" edge="1" parent="IrHY06osy-3fzBqlDA18-348" target="IrHY06osy-3fzBqlDA18-352">
          <mxGeometry relative="1" as="geometry">
            <mxPoint x="413.1372549019608" y="160" as="sourcePoint" />
          </mxGeometry>
        </mxCell>
        <mxCell id="IrHY06osy-3fzBqlDA18-356" value="UCXOATHUCDON" style="swimlane;whiteSpace=wrap;html=1;" vertex="1" parent="IrHY06osy-3fzBqlDA18-348">
          <mxGeometry width="365.1" height="390" as="geometry" />
        </mxCell>
        <mxCell id="IrHY06osy-3fzBqlDA18-357" value="" style="fontSize=12;html=1;endArrow=blockThin;endFill=1;startArrow=none;rounded=0;startFill=0;dashed=1;entryX=0.5;entryY=1;entryDx=0;entryDy=0;" edge="1" parent="IrHY06osy-3fzBqlDA18-356" target="IrHY06osy-3fzBqlDA18-353">
          <mxGeometry width="60" height="60" relative="1" as="geometry">
            <mxPoint x="182.54901960784315" y="290" as="sourcePoint" />
            <mxPoint x="264.21568627450984" y="220" as="targetPoint" />
          </mxGeometry>
        </mxCell>
        <mxCell id="IrHY06osy-3fzBqlDA18-358" value="" style="fontSize=12;html=1;endArrow=blockThin;endFill=1;startArrow=none;rounded=0;startFill=0;dashed=1;exitX=0.5;exitY=0;exitDx=0;exitDy=0;entryX=0.5;entryY=1;entryDx=0;entryDy=0;" edge="1" parent="IrHY06osy-3fzBqlDA18-348" source="IrHY06osy-3fzBqlDA18-353" target="IrHY06osy-3fzBqlDA18-352">
          <mxGeometry width="60" height="60" relative="1" as="geometry">
            <mxPoint x="153.72549019607845" y="260" as="sourcePoint" />
            <mxPoint x="211.3725490196079" y="200" as="targetPoint" />
          </mxGeometry>
        </mxCell>
        <mxCell id="IrHY06osy-3fzBqlDA18-359" value="" style="group" vertex="1" connectable="0" parent="1">
          <mxGeometry x="278.03921568627453" y="6430" width="441.96078431372547" height="560" as="geometry" />
        </mxCell>
        <mxCell id="IrHY06osy-3fzBqlDA18-360" style="rounded=0;orthogonalLoop=1;jettySize=auto;html=1;entryX=1;entryY=0.5;entryDx=0;entryDy=0;" edge="1" parent="IrHY06osy-3fzBqlDA18-359" source="IrHY06osy-3fzBqlDA18-363" target="IrHY06osy-3fzBqlDA18-368">
          <mxGeometry relative="1" as="geometry" />
        </mxCell>
        <mxCell id="IrHY06osy-3fzBqlDA18-361" style="rounded=0;orthogonalLoop=1;jettySize=auto;html=1;entryX=1;entryY=0.5;entryDx=0;entryDy=0;" edge="1" parent="IrHY06osy-3fzBqlDA18-359" source="IrHY06osy-3fzBqlDA18-363" target="IrHY06osy-3fzBqlDA18-369">
          <mxGeometry relative="1" as="geometry" />
        </mxCell>
        <mxCell id="IrHY06osy-3fzBqlDA18-363" value="Quản lý" style="shape=umlActor;verticalLabelPosition=bottom;verticalAlign=top;html=1;outlineConnect=0;" vertex="1" parent="IrHY06osy-3fzBqlDA18-359">
          <mxGeometry x="413.1372549019608" y="250" width="28.823529411764707" height="60" as="geometry" />
        </mxCell>
        <mxCell id="IrHY06osy-3fzBqlDA18-364" style="rounded=0;orthogonalLoop=1;jettySize=auto;html=1;entryX=1.004;entryY=0.366;entryDx=0;entryDy=0;entryPerimeter=0;exitX=0;exitY=0.3333333333333333;exitDx=0;exitDy=0;exitPerimeter=0;" edge="1" parent="IrHY06osy-3fzBqlDA18-359" source="IrHY06osy-3fzBqlDA18-363" target="IrHY06osy-3fzBqlDA18-371">
          <mxGeometry relative="1" as="geometry">
            <mxPoint x="413.1372549019608" y="160" as="sourcePoint" />
          </mxGeometry>
        </mxCell>
        <mxCell id="IrHY06osy-3fzBqlDA18-365" value="UCPHANCONGNHANVIEN" style="swimlane;whiteSpace=wrap;html=1;" vertex="1" parent="IrHY06osy-3fzBqlDA18-359">
          <mxGeometry x="2.55" y="10" width="340" height="480" as="geometry" />
        </mxCell>
        <mxCell id="IrHY06osy-3fzBqlDA18-366" value="" style="fontSize=12;html=1;endArrow=blockThin;endFill=1;startArrow=none;rounded=0;startFill=0;dashed=1;entryX=0.5;entryY=1;entryDx=0;entryDy=0;exitX=0.5;exitY=0;exitDx=0;exitDy=0;" edge="1" parent="IrHY06osy-3fzBqlDA18-365" source="IrHY06osy-3fzBqlDA18-369" target="IrHY06osy-3fzBqlDA18-368">
          <mxGeometry width="60" height="60" relative="1" as="geometry">
            <mxPoint x="182.54901960784315" y="290" as="sourcePoint" />
            <mxPoint x="264.21568627450984" y="220" as="targetPoint" />
          </mxGeometry>
        </mxCell>
        <mxCell id="IrHY06osy-3fzBqlDA18-367" value="Kết quả phân công" style="ellipse;whiteSpace=wrap;html=1;" vertex="1" parent="IrHY06osy-3fzBqlDA18-365">
          <mxGeometry x="111.96196078431373" y="380" width="115.29411764705883" height="80" as="geometry" />
        </mxCell>
        <mxCell id="IrHY06osy-3fzBqlDA18-368" value="Nhập thông tin phân công" style="ellipse;whiteSpace=wrap;html=1;" vertex="1" parent="IrHY06osy-3fzBqlDA18-365">
          <mxGeometry x="112.35196078431373" y="145" width="115.29411764705883" height="80" as="geometry" />
        </mxCell>
        <mxCell id="IrHY06osy-3fzBqlDA18-369" value="Yêu cầu ghi nhận thông tin phân công" style="ellipse;whiteSpace=wrap;html=1;" vertex="1" parent="IrHY06osy-3fzBqlDA18-365">
          <mxGeometry x="112.35196078431373" y="260" width="115.29411764705883" height="80" as="geometry" />
        </mxCell>
        <mxCell id="IrHY06osy-3fzBqlDA18-371" value="Yêu cầu phân công&amp;nbsp;" style="ellipse;whiteSpace=wrap;html=1;" vertex="1" parent="IrHY06osy-3fzBqlDA18-365">
          <mxGeometry x="111.96196078431373" y="40" width="115.29411764705883" height="80" as="geometry" />
        </mxCell>
        <mxCell id="IrHY06osy-3fzBqlDA18-372" value="" style="fontSize=12;html=1;endArrow=blockThin;endFill=1;startArrow=none;rounded=0;startFill=0;dashed=1;exitX=0.5;exitY=0;exitDx=0;exitDy=0;entryX=0.5;entryY=1;entryDx=0;entryDy=0;" edge="1" parent="IrHY06osy-3fzBqlDA18-365" source="IrHY06osy-3fzBqlDA18-368" target="IrHY06osy-3fzBqlDA18-371">
          <mxGeometry width="60" height="60" relative="1" as="geometry">
            <mxPoint x="153.72549019607845" y="260" as="sourcePoint" />
            <mxPoint x="211.37254901960787" y="200" as="targetPoint" />
          </mxGeometry>
        </mxCell>
        <mxCell id="IrHY06osy-3fzBqlDA18-373" value="" style="fontSize=12;html=1;endArrow=blockThin;endFill=1;startArrow=none;rounded=0;startFill=0;dashed=1;exitX=0.5;exitY=0;exitDx=0;exitDy=0;entryX=0.5;entryY=1;entryDx=0;entryDy=0;" edge="1" parent="IrHY06osy-3fzBqlDA18-365" source="IrHY06osy-3fzBqlDA18-367" target="IrHY06osy-3fzBqlDA18-369">
          <mxGeometry width="60" height="60" relative="1" as="geometry">
            <mxPoint x="169.60901960784338" y="370" as="sourcePoint" />
            <mxPoint x="260.00078431372543" y="310" as="targetPoint" />
          </mxGeometry>
        </mxCell>
        <mxCell id="IrHY06osy-3fzBqlDA18-375" style="rounded=0;orthogonalLoop=1;jettySize=auto;html=1;" edge="1" parent="IrHY06osy-3fzBqlDA18-359" source="IrHY06osy-3fzBqlDA18-367" target="IrHY06osy-3fzBqlDA18-363">
          <mxGeometry relative="1" as="geometry" />
        </mxCell>
      </root>
    </mxGraphModel>
  </diagram>
</mxfile>
